<?xml version="1.0" encoding="UTF-8" standalone="no"?>
<!-- Created with Inkscape (http://www.inkscape.org/) -->

<svg
   version="1.1"
   id="svg2"
   width="770.76001"
   height="560.64001"
   viewBox="0 0 770.76001 560.64001"
   xmlns="http://www.w3.org/2000/svg"
   xmlns:svg="http://www.w3.org/2000/svg">
  <defs
     id="defs6" />
  <g
     id="g10"
     transform="matrix(1.3333333,0,0,-1.3333333,0,560.64)">
    <g
       id="g12"
       transform="scale(0.1)">
      <path
         d="m 938.824,2333.32 v -207.54 h -15.117 v 193.9 h -50.703 v 13.64 h 65.82"
         style="fill:#dadbd8;fill-opacity:1;fill-rule:nonzero;stroke:none"
         id="path16" />
      <path
         d="m 1478.63,2229.55 c 0,57.81 -26.97,91.31 -66.11,91.31 -39.13,0 -66.11,-33.5 -66.11,-91.31 0,-57.82 26.98,-91.32 66.11,-91.32 39.14,0 66.11,33.5 66.11,91.32 z m -147.34,0 c 0,64.92 33.5,105.25 81.23,105.25 47.73,0 81.24,-40.33 81.24,-105.25 0,-64.93 -33.51,-105.26 -81.24,-105.26 -47.73,0 -81.23,40.33 -81.23,105.26"
         style="fill:#e7e8e5;fill-opacity:1;fill-rule:nonzero;stroke:none"
         id="path18" />
      <path
         d="m 1968.5,2229.55 c 0,57.81 -26.98,91.31 -66.12,91.31 -39.13,0 -66.11,-33.5 -66.11,-91.31 0,-57.82 26.98,-91.32 66.11,-91.32 39.14,0 66.12,33.5 66.12,91.32 z m -147.35,0 c 0,64.92 33.5,105.25 81.23,105.25 47.74,0 81.24,-40.33 81.24,-105.25 0,-64.93 -33.5,-105.26 -81.24,-105.26 -47.73,0 -81.23,40.33 -81.23,105.26"
         style="fill:#dadbd8;fill-opacity:1;fill-rule:nonzero;stroke:none"
         id="path20" />
      <path
         d="m 2398.15,2333.32 v -207.54 h -15.11 v 193.9 h -50.71 v 13.64 h 65.82"
         style="fill:#dadbd8;fill-opacity:1;fill-rule:nonzero;stroke:none"
         id="path22" />
      <path
         d="m 2948.18,2229.55 c 0,57.81 -26.97,91.31 -66.1,91.31 -39.14,0 -66.12,-33.5 -66.12,-91.31 0,-57.82 26.98,-91.32 66.12,-91.32 39.13,0 66.1,33.5 66.1,91.32 z m -147.34,0 c 0,64.92 33.5,105.25 81.24,105.25 47.72,0 81.24,-40.33 81.24,-105.25 0,-64.93 -33.52,-105.26 -81.24,-105.26 -47.74,0 -81.24,40.33 -81.24,105.26"
         style="fill:#e7e8e5;fill-opacity:1;fill-rule:nonzero;stroke:none"
         id="path24" />
      <path
         d="m 3438.05,2229.55 c 0,57.81 -26.98,91.31 -66.12,91.31 -39.14,0 -66.11,-33.5 -66.11,-91.31 0,-57.82 26.97,-91.32 66.11,-91.32 39.14,0 66.12,33.5 66.12,91.32 z m -147.35,0 c 0,64.92 33.5,105.25 81.23,105.25 47.74,0 81.23,-40.33 81.23,-105.25 0,-64.93 -33.49,-105.26 -81.23,-105.26 -47.73,0 -81.23,40.33 -81.23,105.26"
         style="fill:#dadbd8;fill-opacity:1;fill-rule:nonzero;stroke:none"
         id="path26" />
      <path
         d="m 938.824,3289.89 v -207.54 h -15.117 v 193.9 h -50.703 v 13.64 h 65.82"
         style="fill:#dadbd8;fill-opacity:1;fill-rule:nonzero;stroke:none"
         id="path30" />
      <path
         d="m 1478.64,3186.12 c 0,57.82 -26.97,91.31 -66.12,91.31 -39.13,0 -66.11,-33.49 -66.11,-91.31 0,-57.81 26.98,-91.31 66.11,-91.31 39.15,0 66.12,33.5 66.12,91.31 z m -147.35,0 c 0,64.93 33.5,105.25 81.23,105.25 47.74,0 81.24,-40.32 81.24,-105.25 0,-64.93 -33.5,-105.25 -81.24,-105.25 -47.73,0 -81.23,40.32 -81.23,105.25"
         style="fill:#e7e8e5;fill-opacity:1;fill-rule:nonzero;stroke:none"
         id="path32" />
      <path
         d="m 1968.5,3186.12 c 0,57.82 -26.98,91.31 -66.12,91.31 -39.13,0 -66.11,-33.49 -66.11,-91.31 0,-57.81 26.98,-91.31 66.11,-91.31 39.14,0 66.12,33.5 66.12,91.31 z m -147.35,0 c 0,64.93 33.5,105.25 81.23,105.25 47.74,0 81.24,-40.32 81.24,-105.25 0,-64.93 -33.5,-105.25 -81.24,-105.25 -47.73,0 -81.23,40.32 -81.23,105.25"
         style="fill:#dadbd8;fill-opacity:1;fill-rule:nonzero;stroke:none"
         id="path34" />
      <path
         d="m 2398.16,3289.89 v -207.54 h -15.12 v 193.9 h -50.7 v 13.64 h 65.82"
         style="fill:#dadbd8;fill-opacity:1;fill-rule:nonzero;stroke:none"
         id="path36" />
      <path
         d="m 2948.2,3186.12 c 0,57.82 -26.97,91.31 -66.12,91.31 -39.13,0 -66.11,-33.49 -66.11,-91.31 0,-57.81 26.98,-91.31 66.11,-91.31 39.15,0 66.12,33.5 66.12,91.31 z m -147.35,0 c 0,64.93 33.5,105.25 81.23,105.25 47.74,0 81.24,-40.32 81.24,-105.25 0,-64.93 -33.5,-105.25 -81.24,-105.25 -47.73,0 -81.23,40.32 -81.23,105.25"
         style="fill:#e7e8e5;fill-opacity:1;fill-rule:nonzero;stroke:none"
         id="path38" />
      <path
         d="m 3438.05,3186.12 c 0,57.82 -26.98,91.31 -66.12,91.31 -39.14,0 -66.11,-33.49 -66.11,-91.31 0,-57.81 26.97,-91.31 66.11,-91.31 39.14,0 66.12,33.5 66.12,91.31 z m -147.35,0 c 0,64.93 33.5,105.25 81.23,105.25 47.74,0 81.23,-40.32 81.23,-105.25 0,-64.93 -33.49,-105.25 -81.23,-105.25 -47.73,0 -81.23,40.32 -81.23,105.25"
         style="fill:#dadbd8;fill-opacity:1;fill-rule:nonzero;stroke:none"
         id="path40" />
      <path
         d="m 988.793,2720.6 c 0,57.81 -26.973,91.31 -66.113,91.31 -39.129,0 -66.114,-33.5 -66.114,-91.31 0,-57.82 26.985,-91.32 66.114,-91.32 39.14,0 66.113,33.5 66.113,91.32 z m -147.344,0 c 0,64.92 33.496,105.24 81.231,105.24 47.734,0 81.24,-40.32 81.24,-105.24 0,-64.93 -33.506,-105.26 -81.24,-105.26 -47.735,0 -81.231,40.33 -81.231,105.26"
         style="fill:#e7e8e5;fill-opacity:1;fill-rule:nonzero;stroke:none"
         id="path44" />
      <path
         d="m 1478.64,2720.6 c 0,57.81 -26.97,91.31 -66.11,91.31 -39.13,0 -66.11,-33.5 -66.11,-91.31 0,-57.82 26.98,-91.32 66.11,-91.32 39.14,0 66.11,33.5 66.11,91.32 z m -147.34,0 c 0,64.92 33.5,105.24 81.23,105.24 47.73,0 81.24,-40.32 81.24,-105.24 0,-64.93 -33.51,-105.26 -81.24,-105.26 -47.73,0 -81.23,40.33 -81.23,105.26"
         style="fill:#dadbd8;fill-opacity:1;fill-rule:nonzero;stroke:none"
         id="path46" />
      <path
         d="m 1918.53,2824.37 v -207.54 h -15.12 v 193.89 h -50.7 v 13.65 h 65.82"
         style="fill:#dadbd8;fill-opacity:1;fill-rule:nonzero;stroke:none"
         id="path48" />
      <path
         d="m 2448.12,2707.84 c 0,57.81 -26.97,91.31 -66.11,91.31 -39.13,0 -66.12,-33.5 -66.12,-91.31 0,-57.81 26.99,-91.32 66.12,-91.32 39.14,0 66.11,33.51 66.11,91.32 z m -147.34,0 c 0,64.92 33.49,105.24 81.23,105.24 47.73,0 81.24,-40.32 81.24,-105.24 0,-64.93 -33.51,-105.26 -81.24,-105.26 -47.74,0 -81.23,40.33 -81.23,105.26"
         style="fill:#e7e8e5;fill-opacity:1;fill-rule:nonzero;stroke:none"
         id="path50" />
      <path
         d="m 2948.19,2720.6 c 0,57.81 -26.97,91.31 -66.11,91.31 -39.13,0 -66.11,-33.5 -66.11,-91.31 0,-57.82 26.98,-91.32 66.11,-91.32 39.14,0 66.11,33.5 66.11,91.32 z m -147.34,0 c 0,64.92 33.5,105.24 81.23,105.24 47.73,0 81.24,-40.32 81.24,-105.24 0,-64.93 -33.51,-105.26 -81.24,-105.26 -47.73,0 -81.23,40.33 -81.23,105.26"
         style="fill:#dadbd8;fill-opacity:1;fill-rule:nonzero;stroke:none"
         id="path52" />
      <path
         d="m 3388.08,2824.37 v -207.54 h -15.12 v 193.89 h -50.7 v 13.65 h 65.82"
         style="fill:#dadbd8;fill-opacity:1;fill-rule:nonzero;stroke:none"
         id="path54" />
      <path
         d="m 3931.64,2229.55 c 0,57.81 -26.97,91.31 -66.11,91.31 -39.12,0 -66.12,-33.5 -66.12,-91.31 0,-57.82 27,-91.32 66.12,-91.32 39.14,0 66.11,33.5 66.11,91.32 z m -147.34,0 c 0,64.92 33.49,105.25 81.23,105.25 47.73,0 81.25,-40.33 81.25,-105.25 0,-64.93 -33.52,-105.26 -81.25,-105.26 -47.74,0 -81.23,40.33 -81.23,105.26"
         style="fill:#e7e8e5;fill-opacity:1;fill-rule:nonzero;stroke:none"
         id="path84" />
      <path
         d="m 4421.5,2229.55 c 0,57.81 -26.97,91.31 -66.11,91.31 -39.12,0 -66.11,-33.5 -66.11,-91.31 0,-57.82 26.99,-91.32 66.11,-91.32 39.14,0 66.11,33.5 66.11,91.32 z m -147.34,0 c 0,64.92 33.5,105.25 81.23,105.25 47.74,0 81.25,-40.33 81.25,-105.25 0,-64.93 -33.51,-105.26 -81.25,-105.26 -47.73,0 -81.23,40.33 -81.23,105.26"
         style="fill:#dadbd8;fill-opacity:1;fill-rule:nonzero;stroke:none"
         id="path86" />
      <path
         d="m 4851.17,2333.32 v -207.54 h -15.12 v 193.9 h -50.7 v 13.64 h 65.82"
         style="fill:#dadbd8;fill-opacity:1;fill-rule:nonzero;stroke:none"
         id="path88" />
      <path
         d="m 5401.2,2229.55 c 0,57.81 -26.97,91.31 -66.11,91.31 -39.13,0 -66.12,-33.5 -66.12,-91.31 0,-57.82 26.99,-91.32 66.12,-91.32 39.14,0 66.11,33.5 66.11,91.32 z m -147.34,0 c 0,64.92 33.49,105.25 81.23,105.25 47.73,0 81.24,-40.33 81.24,-105.25 0,-64.93 -33.51,-105.26 -81.24,-105.26 -47.74,0 -81.23,40.33 -81.23,105.26"
         style="fill:#e7e8e5;fill-opacity:1;fill-rule:nonzero;stroke:none"
         id="path90" />
      <path
         d="m 3931.65,3186.12 c 0,57.82 -26.97,91.31 -66.11,91.31 -39.13,0 -66.12,-33.49 -66.12,-91.31 0,-57.81 26.99,-91.31 66.12,-91.31 39.14,0 66.11,33.5 66.11,91.31 z m -147.34,0 c 0,64.93 33.49,105.25 81.23,105.25 47.73,0 81.24,-40.32 81.24,-105.25 0,-64.93 -33.51,-105.25 -81.24,-105.25 -47.74,0 -81.23,40.32 -81.23,105.25"
         style="fill:#e7e8e5;fill-opacity:1;fill-rule:nonzero;stroke:none"
         id="path92" />
      <path
         d="m 4421.5,3186.12 c 0,57.82 -26.97,91.31 -66.11,91.31 -39.12,0 -66.11,-33.49 -66.11,-91.31 0,-57.81 26.99,-91.31 66.11,-91.31 39.14,0 66.11,33.5 66.11,91.31 z m -147.34,0 c 0,64.93 33.5,105.25 81.23,105.25 47.74,0 81.25,-40.32 81.25,-105.25 0,-64.93 -33.51,-105.25 -81.25,-105.25 -47.73,0 -81.23,40.32 -81.23,105.25"
         style="fill:#dadbd8;fill-opacity:1;fill-rule:nonzero;stroke:none"
         id="path94" />
      <path
         d="m 4851.17,3289.89 v -207.54 h -15.12 v 193.9 h -50.7 v 13.64 h 65.82"
         style="fill:#dadbd8;fill-opacity:1;fill-rule:nonzero;stroke:none"
         id="path96" />
      <path
         d="m 5401.21,3186.12 c 0,57.82 -26.97,91.31 -66.11,91.31 -39.13,0 -66.12,-33.49 -66.12,-91.31 0,-57.81 26.99,-91.31 66.12,-91.31 39.14,0 66.11,33.5 66.11,91.31 z m -147.34,0 c 0,64.93 33.49,105.25 81.23,105.25 47.73,0 81.24,-40.32 81.24,-105.25 0,-64.93 -33.51,-105.25 -81.24,-105.25 -47.74,0 -81.23,40.32 -81.23,105.25"
         style="fill:#e7e8e5;fill-opacity:1;fill-rule:nonzero;stroke:none"
         id="path98" />
      <path
         d="m 3931.66,2720.6 c 0,57.81 -26.97,91.31 -66.11,91.31 -39.14,0 -66.12,-33.5 -66.12,-91.31 0,-57.82 26.98,-91.32 66.12,-91.32 39.14,0 66.11,33.5 66.11,91.32 z m -147.34,0 c 0,64.92 33.49,105.24 81.23,105.24 47.73,0 81.23,-40.32 81.23,-105.24 0,-64.93 -33.5,-105.26 -81.23,-105.26 -47.74,0 -81.23,40.33 -81.23,105.26"
         style="fill:#dadbd8;fill-opacity:1;fill-rule:nonzero;stroke:none"
         id="path100" />
      <path
         d="m 4371.54,2824.37 v -207.54 h -15.11 v 193.89 h -50.71 v 13.65 h 65.82"
         style="fill:#dadbd8;fill-opacity:1;fill-rule:nonzero;stroke:none"
         id="path102" />
      <path
         d="m 4901.13,2707.84 c 0,57.81 -26.97,91.31 -66.11,91.31 -39.13,0 -66.11,-33.5 -66.11,-91.31 0,-57.81 26.98,-91.32 66.11,-91.32 39.14,0 66.11,33.51 66.11,91.32 z m -147.34,0 c 0,64.92 33.5,105.24 81.23,105.24 47.73,0 81.24,-40.32 81.24,-105.24 0,-64.93 -33.51,-105.26 -81.24,-105.26 -47.73,0 -81.23,40.33 -81.23,105.26"
         style="fill:#e7e8e5;fill-opacity:1;fill-rule:nonzero;stroke:none"
         id="path104" />
      <path
         d="m 5401.21,2720.6 c 0,57.81 -26.97,91.31 -66.11,91.31 -39.14,0 -66.12,-33.5 -66.12,-91.31 0,-57.82 26.98,-91.32 66.12,-91.32 39.14,0 66.11,33.5 66.11,91.32 z m -147.34,0 c 0,64.92 33.49,105.24 81.23,105.24 47.73,0 81.23,-40.32 81.23,-105.24 0,-64.93 -33.5,-105.26 -81.23,-105.26 -47.74,0 -81.23,40.33 -81.23,105.26"
         style="fill:#dadbd8;fill-opacity:1;fill-rule:nonzero;stroke:none"
         id="path106" />
      <path
         d="m 4734.43,742.219 h -3729 c -80.453,0 -145.672,65.222 -145.672,145.679 V 3255.17 c 0,80.45 65.219,145.67 145.672,145.67 h 3729 c 80.46,0 145.68,-65.22 145.68,-145.67 V 887.898 c 0,-80.457 -65.22,-145.679 -145.68,-145.679"
         style="fill:#17282f;fill-opacity:1;fill-rule:nonzero;stroke:none"
         id="path124" />
      <path
         d="M 4869.4,706.23 H 869.605 c -98.292,0 -177.972,79.68 -177.972,177.981 v 54.641 H 5047.38 v -54.641 c 0,-98.301 -79.69,-177.981 -177.98,-177.981"
         style="fill:#17282f;fill-opacity:1;fill-rule:nonzero;stroke:none"
         id="path126" />
      <path
         d="m 967.672,1050.05 h 3793.28 V 3295.22 H 967.672 Z"
         style="fill:#dadbd8;fill-opacity:1;fill-rule:nonzero;stroke:none"
         id="path128" />
      <path
         d="m 2473.61,938.852 54.05,-85.973 h 760.56 l 50.2,85.973 h -864.81"
         style="fill:#33535f;fill-opacity:1;fill-rule:nonzero;stroke:none"
         id="path130" />
      <path
         d="M 4657.9,1057.23 H 1078.54 c -18.08,0 -32.74,14.66 -32.74,32.74 v 2096.51 c 0,18.07 14.65,32.73 32.73,32.73 H 4657.9 c 18.07,0 32.73,-14.65 32.73,-32.73 V 1089.96 c 0,-18.08 -14.66,-32.73 -32.73,-32.73"
         style="fill:#33535f;fill-opacity:1;fill-rule:nonzero;stroke:none"
         id="path132" />
      <path
         d="M 1045.8,1057.23 H 4690.63 V 3060.8 H 1045.8 Z"
         style="fill:#fafaf9;fill-opacity:1;fill-rule:nonzero;stroke:none"
         id="path134" />
      <path
         d="m 1344.73,3135.71 c 0,-16.07 -13.03,-29.11 -29.1,-29.11 -16.08,0 -29.11,13.04 -29.11,29.11 0,16.08 13.03,29.11 29.11,29.11 16.07,0 29.1,-13.03 29.1,-29.11"
         style="fill:#f03d5f;fill-opacity:1;fill-rule:nonzero;stroke:none"
         id="path136" />
      <path
         d="m 1168.31,3135.71 c 0,-16.07 -13.03,-29.11 -29.11,-29.11 -16.07,0 -29.11,13.04 -29.11,29.11 0,16.08 13.04,29.11 29.11,29.11 16.08,0 29.11,-13.03 29.11,-29.11"
         style="fill:#f03d5f;fill-opacity:1;fill-rule:nonzero;stroke:none"
         id="path138" />
      <path
         d="m 1253,3135.71 c 0,-16.07 -13.03,-29.11 -29.11,-29.11 -16.08,0 -29.11,13.04 -29.11,29.11 0,16.08 13.03,29.11 29.11,29.11 16.08,0 29.11,-13.03 29.11,-29.11"
         style="fill:#f03d5f;fill-opacity:1;fill-rule:nonzero;stroke:none"
         id="path140" />
      <path
         d="m 3772.03,2226.29 c 0,0 3.83,0.37 11.29,0.84 3.71,0.36 8.29,1.25 13.74,2.12 5.34,1.47 11.63,2.81 18.37,5.62 13.47,5.26 29.69,14.11 44.42,29.49 7.42,7.63 14.14,16.97 20.04,27.66 5.72,10.8 10,23.24 12.34,36.79 4.88,26.97 0.06,59.41 -18.43,87.46 -18.1,27.98 -51.08,50.39 -90.11,54.13 -9.68,0.67 -19.72,0.59 -29.93,0.54 -10.2,-0.02 -20.57,-0.04 -31.09,-0.05 -21.07,-0.03 -42.79,-0.07 -65.14,-0.1 -44.73,-0.06 -91.99,-0.12 -141.62,-0.18 -397.15,-0.2 -945.63,-0.47 -1551.41,-0.77 -37.09,-0.03 -73.69,-17.78 -95.64,-47.27 -11.1,-14.54 -18.96,-31.5 -22.56,-49.34 -3.48,-17.84 -2.96,-36.4 1.53,-53.87 8.65,-35.19 34.34,-65.03 66.77,-79.64 16.16,-7.5 33.88,-11.06 51.6,-10.87 18.01,-0.01 35.95,-0.01 53.81,-0.02 142.85,-0.04 280.64,-0.09 411.91,-0.14 262.51,-0.22 498.91,-0.4 697.47,-0.56 198.48,-0.35 359.1,-0.63 470.22,-0.83 55.44,-0.21 98.51,-0.38 127.84,-0.49 14.54,-0.11 25.65,-0.19 33.25,-0.26 7.49,-0.09 11.33,-0.26 11.33,-0.26 0,0 -3.84,-0.18 -11.33,-0.27 -7.6,-0.06 -18.71,-0.14 -33.25,-0.26 -29.33,-0.11 -72.4,-0.28 -127.84,-0.49 -111.12,-0.2 -271.74,-0.48 -470.22,-0.82 -198.56,-0.17 -434.96,-0.35 -697.47,-0.57 -131.27,-0.04 -269.06,-0.09 -411.91,-0.14 -17.86,0 -35.8,-0.01 -53.81,-0.01 -18.31,-0.22 -36.91,3.49 -53.73,11.31 -33.83,15.22 -60.6,46.31 -69.66,83.03 -4.69,18.24 -5.23,37.57 -1.6,56.19 3.75,18.61 11.94,36.31 23.53,51.47 22.88,30.75 61.09,49.3 99.76,49.32 605.78,-0.3 1154.26,-0.57 1551.41,-0.76 49.63,-0.07 96.89,-0.13 141.62,-0.19 22.35,-0.03 44.07,-0.07 65.14,-0.09 10.52,-0.02 20.89,-0.04 31.09,-0.05 10.19,0.01 20.21,0.07 30.21,-0.66 39.96,-3.97 73.57,-27.04 91.9,-55.67 18.74,-28.7 23.47,-61.77 18.36,-89.16 -2.45,-13.77 -6.9,-26.37 -12.76,-37.3 -6.06,-10.8 -12.94,-20.22 -20.5,-27.88 -15.04,-15.47 -31.53,-24.25 -45.17,-29.41 -6.83,-2.75 -13.19,-4.01 -18.57,-5.4 -5.51,-0.81 -10.13,-1.61 -13.86,-1.88 -7.51,-0.29 -11.34,-0.31 -11.34,-0.31"
         style="fill:#17282f;fill-opacity:1;fill-rule:nonzero;stroke:none"
         id="path142" />
      <path
         d="m 3772.03,2226.29 h -236.54 v 246.16 h 236.54 c 67.97,0 123.08,-55.11 123.08,-123.08 0,-67.98 -55.11,-123.08 -123.08,-123.08"
         style="fill:#f03d5f;fill-opacity:1;fill-rule:nonzero;stroke:none"
         id="path144" />
      <path
         d="m 3730.67,2372.53 c -0.49,-0.02 -0.44,4.18 -2.44,11.2 -1.98,6.89 -6.77,16.92 -17.18,24.58 -10.05,7.69 -26.51,11.93 -42.37,5.97 -15.73,-5.47 -29.29,-22.21 -29.11,-41.74 -0.18,-19.54 13.37,-36.29 29.11,-41.76 15.86,-5.96 32.33,-1.72 42.37,5.97 10.42,7.67 15.2,17.7 17.18,24.59 2,7.02 1.95,11.22 2.44,11.19 0.19,0 0.31,-1.02 0.38,-3.02 0.11,-1.98 -0.08,-4.94 -0.85,-8.66 -1.46,-7.34 -5.96,-18.33 -16.91,-27.03 -10.57,-8.7 -28.54,-13.9 -46.25,-7.55 -17.54,5.78 -32.89,24.41 -32.67,46.27 -0.21,21.85 15.13,40.48 32.67,46.26 17.7,6.34 35.68,1.14 46.25,-7.56 10.95,-8.69 15.45,-19.69 16.91,-27.02 0.77,-3.72 0.96,-6.68 0.85,-8.67 -0.07,-1.99 -0.19,-3.02 -0.38,-3.02"
         style="fill:#ffffff;fill-opacity:1;fill-rule:nonzero;stroke:none"
         id="path146" />
      <path
         d="m 3793.63,2294.31 c -0.8,-1.19 -17.83,8.83 -38.01,22.39 -20.21,13.56 -35.93,25.51 -35.13,26.7 0.8,1.2 17.82,-8.82 38.03,-22.38 20.19,-13.55 35.91,-25.51 35.11,-26.71"
         style="fill:#ffffff;fill-opacity:1;fill-rule:nonzero;stroke:none"
         id="path148" />
      <path
         d="m 1994.2,2280.16 c -1.44,0 -2.6,31.16 -2.6,69.61 0,38.45 1.16,69.62 2.6,69.62 1.44,0 2.61,-31.17 2.61,-69.62 0,-38.45 -1.17,-69.61 -2.61,-69.61"
         style="fill:#33535f;fill-opacity:1;fill-rule:nonzero;stroke:none"
         id="path150" />
      <path
         d="m 2285.75,1229.95 h -590.9 v 571.69 h 590.9 v -571.69"
         style="fill:#dadbd8;fill-opacity:1;fill-rule:nonzero;stroke:none"
         id="path152" />
      <path
         d="m 1740.66,1278.88 163.47,294.18 133.7,-188.02 81.24,99.84 120.87,-206 h -499.28"
         style="fill:#f03d5f;fill-opacity:1;fill-rule:nonzero;stroke:none"
         id="path154" />
      <path
         d="m 2094.78,1630.28 c 0,-23.49 -19.03,-42.52 -42.52,-42.52 -23.49,0 -42.53,19.03 -42.53,42.52 0,23.49 19.04,42.52 42.53,42.52 23.49,0 42.52,-19.03 42.52,-42.52"
         style="fill:#f03d5f;fill-opacity:1;fill-rule:nonzero;stroke:none"
         id="path156" />
      <path
         d="m 2239.94,1277.29 c -0.04,0.04 -0.09,0.83 -0.14,2.35 -0.03,1.7 -0.08,3.88 -0.13,6.66 -0.07,6.08 -0.16,14.66 -0.28,25.73 -0.15,22.66 -0.36,55.46 -0.63,97.09 -0.3,83.49 -0.73,202.41 -1.24,345.17 l 2.42,-2.41 c -144.6,-0.12 -316.01,-0.25 -499.23,-0.4 -0.67,-0.59 5.29,5.29 2.77,2.74 v -0.13 -0.26 -0.5 -1.03 -2.04 -4.07 -8.15 -16.24 c 0,-10.8 0,-21.56 -0.01,-32.27 0,-21.42 -0.01,-42.65 -0.01,-63.65 -0.03,-42.02 -0.05,-83.15 -0.08,-123.19 -0.09,-80.07 -0.18,-155.77 -0.26,-225.4 l -2.45,2.45 c 149,-0.51 273.48,-0.94 360.99,-1.25 43.63,-0.27 78.03,-0.49 101.81,-0.63 11.62,-0.13 20.64,-0.23 27.01,-0.3 2.92,-0.05 5.21,-0.09 7,-0.13 1.59,-0.05 2.41,-0.09 2.46,-0.14 0.05,-0.05 -0.69,-0.1 -2.18,-0.14 -1.73,-0.03 -3.93,-0.08 -6.74,-0.14 -6.26,-0.06 -15.12,-0.17 -26.53,-0.28 -23.65,-0.15 -57.87,-0.37 -101.26,-0.65 -87.89,-0.3 -212.9,-0.73 -362.56,-1.24 l -2.45,-0.01 -0.01,2.46 c -0.08,69.63 -0.17,145.33 -0.27,225.4 -0.01,40.04 -0.04,81.17 -0.06,123.19 -0.01,21 -0.02,42.23 -0.02,63.65 0,10.71 -0.01,21.47 -0.01,32.27 v 16.24 8.15 4.07 2.04 1.03 0.5 0.26 0.13 c -2.51,-2.48 3.41,3.52 2.86,2.9 183.22,-0.15 354.63,-0.29 499.23,-0.4 h 2.43 l -0.01,-2.43 c -0.52,-143.4 -0.94,-262.84 -1.24,-346.72 -0.27,-41.39 -0.48,-74 -0.63,-96.54 -0.12,-10.86 -0.21,-19.29 -0.28,-25.26 -0.06,-2.67 -0.1,-4.76 -0.14,-6.41 -0.05,-1.41 -0.08,-2.12 -0.13,-2.07"
         style="fill:#33535f;fill-opacity:1;fill-rule:nonzero;stroke:none"
         id="path158" />
      <path
         d="m 3226.31,1229.95 h -590.89 v 571.69 h 590.89 v -571.69"
         style="fill:#f03d5f;fill-opacity:1;fill-rule:nonzero;stroke:none"
         id="path160" />
      <path
         d="m 2681.23,1278.88 163.46,294.18 133.7,-188.02 81.24,99.84 120.87,-206 h -499.27"
         style="fill:#dadbd8;fill-opacity:1;fill-rule:nonzero;stroke:none"
         id="path162" />
      <path
         d="m 3035.34,1630.28 c 0,-23.49 -19.03,-42.52 -42.52,-42.52 -23.48,0 -42.53,19.03 -42.53,42.52 0,23.49 19.05,42.52 42.53,42.52 23.49,0 42.52,-19.03 42.52,-42.52"
         style="fill:#dadbd8;fill-opacity:1;fill-rule:nonzero;stroke:none"
         id="path164" />
      <path
         d="m 3180.5,1277.29 c -0.04,0.04 -0.09,0.83 -0.14,2.35 -0.03,1.7 -0.08,3.88 -0.13,6.66 -0.06,6.08 -0.16,14.66 -0.28,25.73 -0.15,22.66 -0.36,55.46 -0.63,97.09 -0.3,83.49 -0.73,202.41 -1.23,345.17 l 2.41,-2.41 c -144.6,-0.12 -316.01,-0.25 -499.23,-0.4 -0.67,-0.59 5.29,5.29 2.77,2.74 v -0.13 -0.26 -0.5 -1.03 -2.04 -4.07 -8.15 -16.24 c 0,-10.8 0,-21.56 -0.01,-32.27 0,-21.42 -0.01,-42.65 -0.01,-63.65 -0.03,-42.02 -0.05,-83.15 -0.07,-123.19 -0.1,-80.07 -0.19,-155.77 -0.27,-225.4 l -2.45,2.45 c 149,-0.51 273.48,-0.94 360.99,-1.25 43.63,-0.27 78.03,-0.49 101.81,-0.63 11.62,-0.13 20.64,-0.23 27.02,-0.3 2.92,-0.05 5.2,-0.09 6.99,-0.13 1.59,-0.05 2.41,-0.09 2.46,-0.14 0.05,-0.05 -0.69,-0.1 -2.18,-0.14 -1.73,-0.03 -3.93,-0.08 -6.74,-0.14 -6.26,-0.06 -15.11,-0.17 -26.53,-0.28 -23.65,-0.15 -57.87,-0.37 -101.26,-0.65 -87.89,-0.3 -212.9,-0.73 -362.56,-1.24 l -2.45,-0.01 -0.01,2.46 c -0.08,69.63 -0.17,145.33 -0.26,225.4 -0.02,40.04 -0.05,81.17 -0.07,123.19 -0.01,21 -0.02,42.23 -0.02,63.65 0,10.71 -0.01,21.47 -0.01,32.27 v 16.24 8.15 4.07 2.04 1.03 0.5 0.26 0.13 c -2.51,-2.48 3.42,3.52 2.86,2.9 183.22,-0.15 354.63,-0.29 499.23,-0.4 h 2.43 l -0.01,-2.43 c -0.52,-143.4 -0.94,-262.84 -1.24,-346.72 -0.27,-41.39 -0.48,-74 -0.63,-96.54 -0.12,-10.86 -0.21,-19.29 -0.28,-25.26 -0.06,-2.67 -0.1,-4.76 -0.13,-6.41 -0.05,-1.41 -0.09,-2.12 -0.14,-2.07"
         style="fill:#33535f;fill-opacity:1;fill-rule:nonzero;stroke:none"
         id="path166" />
      <path
         d="m 4166.87,1229.95 h -590.89 v 571.69 h 590.89 v -571.69"
         style="fill:#dadbd8;fill-opacity:1;fill-rule:nonzero;stroke:none"
         id="path168" />
      <path
         d="m 3621.79,1278.88 163.45,294.18 133.71,-188.02 81.24,99.84 120.86,-206 h -499.26"
         style="fill:#f03d5f;fill-opacity:1;fill-rule:nonzero;stroke:none"
         id="path170" />
      <path
         d="m 3975.9,1630.28 c 0,-23.49 -19.03,-42.52 -42.52,-42.52 -23.49,0 -42.53,19.03 -42.53,42.52 0,23.49 19.04,42.52 42.53,42.52 23.49,0 42.52,-19.03 42.52,-42.52"
         style="fill:#f03d5f;fill-opacity:1;fill-rule:nonzero;stroke:none"
         id="path172" />
      <path
         d="m 4121.05,1277.29 c -0.03,0.04 -0.08,0.83 -0.13,2.35 -0.03,1.7 -0.08,3.88 -0.13,6.66 -0.07,6.08 -0.16,14.66 -0.28,25.73 -0.15,22.66 -0.36,55.46 -0.64,97.09 -0.29,83.49 -0.72,202.41 -1.23,345.17 l 2.41,-2.41 c -144.59,-0.12 -316,-0.25 -499.21,-0.4 -0.68,-0.59 5.28,5.29 2.76,2.74 v -0.13 -0.26 -0.5 -1.03 -2.04 -4.07 -8.15 -16.24 c 0,-10.8 0,-21.56 -0.01,-32.27 0,-21.42 -0.01,-42.65 -0.01,-63.65 -0.03,-42.02 -0.05,-83.15 -0.08,-123.19 -0.09,-80.07 -0.18,-155.77 -0.26,-225.4 l -2.45,2.45 c 149,-0.51 273.47,-0.94 360.98,-1.25 43.64,-0.27 78.04,-0.49 101.82,-0.63 11.62,-0.13 20.63,-0.23 27.01,-0.3 2.92,-0.05 5.21,-0.09 6.99,-0.13 1.6,-0.05 2.42,-0.09 2.46,-0.14 0.05,-0.05 -0.68,-0.1 -2.17,-0.14 -1.73,-0.03 -3.93,-0.08 -6.74,-0.14 -6.26,-0.06 -15.12,-0.17 -26.53,-0.28 -23.66,-0.15 -57.88,-0.37 -101.26,-0.65 -87.89,-0.3 -212.9,-0.73 -362.56,-1.24 l -2.45,-0.01 v 2.46 c -0.09,69.63 -0.18,145.33 -0.28,225.4 -0.02,40.04 -0.04,81.17 -0.07,123.19 -0.01,21 -0.01,42.23 -0.02,63.65 0,10.71 0,21.47 0,32.27 v 16.24 8.15 4.07 2.04 1.03 0.5 0.26 0.13 c -2.51,-2.48 3.41,3.52 2.87,2.9 183.21,-0.15 354.62,-0.29 499.21,-0.4 h 2.44 l -0.01,-2.43 c -0.52,-143.4 -0.94,-262.84 -1.24,-346.72 -0.28,-41.39 -0.48,-74 -0.63,-96.54 -0.13,-10.86 -0.21,-19.29 -0.28,-25.26 -0.06,-2.67 -0.1,-4.76 -0.14,-6.41 -0.05,-1.41 -0.09,-2.12 -0.14,-2.07"
         style="fill:#33535f;fill-opacity:1;fill-rule:nonzero;stroke:none"
         id="path174" />
      <path
         d="m 3242.39,2699.13 h -748.36 v 62.72 h 748.36 v -62.72"
         style="fill:#33535f;fill-opacity:1;fill-rule:nonzero;stroke:none"
         id="path176" />
      <path
         d="m 4845.56,938.852 c 0,-1.43 -892.32,-2.59 -1992.81,-2.59 -1100.86,0 -1992.992,1.16 -1992.992,2.59 0,1.437 892.132,2.609 1992.992,2.609 1100.49,0 1992.81,-1.172 1992.81,-2.609"
         style="fill:#33535f;fill-opacity:1;fill-rule:nonzero;stroke:none"
         id="path178" />
      <path
         d="m 290.637,2033.62 c -56.649,-9.11 -81.969,-78.72 -77.02,-135.88 4.953,-57.16 28.449,-113.04 22.164,-170.06 -7.984,-72.42 -62.711,-133.63 -69.082,-206.21 -7.519,-85.59 53,-161.51 71.074,-245.52 8.793,-40.87 7.563,-84.09 22.782,-123.02 25.66,-65.66 100.906,-107.82 170.3,-95.42 69.395,12.39 125.387,77.99 126.735,148.47 1.254,65.73 -39.305,127.63 -34.375,193.18 3.64,48.45 32.039,94.36 25.961,142.56 -7.238,57.36 -60.387,98.09 -79.141,152.78 -18.754,54.7 -0.738,114.97 -7.215,172.44 -11.613,103.09 -68.769,174.95 -172.183,166.68"
         style="fill:#f03d5f;fill-opacity:1;fill-rule:nonzero;stroke:none"
         id="path180" />
      <path
         d="M 1.38281,1534.47 C -8.25781,1438.95 33.9844,1326.57 83.1055,1244.09 132.23,1161.6 208.375,1095.51 296.949,1058.48 c 9.989,-4.18 22.426,-7.68 30.828,-0.87 6.887,5.6 7.746,15.63 7.805,24.51 0.672,100.51 -32.035,200.97 -91.769,281.82 -59.735,80.86 -146.1528,141.64 -242.43019,170.53"
         style="fill:#f03d5f;fill-opacity:1;fill-rule:nonzero;stroke:none"
         id="path182" />
      <path
         d="m 315.922,1053.77 c -6.285,0 -13.059,2.24 -18.973,4.71 C 208.375,1095.51 132.23,1161.6 83.1055,1244.09 38.7813,1318.51 0.0585938,1417.29 0,1506.05 c -0.00390625,9.6 0.441406,19.09 1.38281,28.42 96.27739,-28.89 182.69519,-89.67 242.43019,-170.53 59.148,-80.06 91.8,-179.35 91.781,-278.88 0,-0.98 -0.004,-1.96 -0.012,-2.94 -0.019,-3.02 -0.133,-6.17 -0.543,-9.24 -0.797,-5.95 -2.715,-11.57 -7.262,-15.27 -3.425,-2.78 -7.523,-3.84 -11.855,-3.84"
         style="fill:#da314b;fill-opacity:1;fill-rule:nonzero;stroke:none"
         id="path184" />
      <path
         d="m 417.484,858.762 c -0.168,-0.071 -1.101,1.758 -2.718,5.32 -1.801,4.117 -4.059,9.297 -6.817,15.637 -5.742,13.652 -14.32,33.281 -25.25,57.39 -21.808,48.223 -54.14,113.861 -94.836,183.601 -40.797,69.71 -82.14,130.1 -113.445,172.76 -15.633,21.36 -28.527,38.47 -37.605,50.17 -4.172,5.52 -7.571,10.02 -10.286,13.61 -2.297,3.16 -3.445,4.87 -3.3,4.98 0.148,0.12 1.574,-1.35 4.152,-4.28 2.918,-3.43 6.586,-7.73 11.082,-12.99 9.598,-11.31 22.977,-28.09 39.035,-49.19 32.156,-42.16 74.129,-102.4 115.055,-172.33 40.812,-69.94 72.699,-136.061 93.656,-184.768 10.504,-24.363 18.559,-44.25 23.699,-58.172 2.383,-6.488 4.328,-11.789 5.875,-16.02 1.289,-3.691 1.879,-5.66 1.703,-5.718"
         style="fill:#17282f;fill-opacity:1;fill-rule:nonzero;stroke:none"
         id="path186" />
      <path
         d="m 355.992,1769.35 c 0.192,0.01 0.539,-3.14 1.035,-9.16 0.473,-6.48 1.11,-15.25 1.911,-26.31 1.496,-23.36 3.617,-56.3 6.222,-96.78 5.156,-81.73 12.41,-194.63 21.172,-319.27 8.785,-124.68 17.422,-237.48 23.762,-319.131 3.094,-40.449 5.609,-73.359 7.394,-96.707 0.754,-11.051 1.356,-19.832 1.793,-26.312 0.352,-6.02 0.449,-9.192 0.262,-9.211 -0.188,-0.008 -0.645,3.133 -1.348,9.113 -0.695,6.469 -1.629,15.219 -2.808,26.219 -2.203,23.32 -5.305,56.179 -9.117,96.578 -7.321,81.581 -16.567,194.361 -25.352,319.071 -8.766,124.67 -15.41,237.62 -19.59,319.43 -1.883,40.53 -3.414,73.51 -4.504,96.9 -0.375,11.07 -0.668,19.86 -0.89,26.35 -0.141,6.04 -0.129,9.21 0.058,9.22"
         style="fill:#17282f;fill-opacity:1;fill-rule:nonzero;stroke:none"
         id="path188" />
      <path
         d="M 268.129,994.98 H 507.348 V 819.352 c 0,-63.43 -51.41,-114.832 -114.832,-114.832 -61.039,0 -111.411,47.742 -114.672,108.699 l -9.715,181.761"
         style="fill:#33535f;fill-opacity:1;fill-rule:nonzero;stroke:none"
         id="path190" />
      <path
         d="m 5573.33,997.762 c 35.34,18.228 76.95,20.608 116.18,14.118 21.08,-3.48 43.05,-9.78 57.39,-25.618 14.35,-15.832 17.06,-43.703 0.6,-57.301 -9.8,-8.09 -23.48,-9.32 -36.19,-9.18 -30.71,0.36 -64.79,5.77 -89.33,-12.711 -13.99,-10.539 -23.31,-28.07 -40.05,-33.261 -16.37,-5.059 -34.85,4.589 -43.53,19.382 -8.68,14.778 -8.98,33.25 -4.92,49.899 0,0 4.25,36.308 39.85,54.672"
         style="fill:#f03d5f;fill-opacity:1;fill-rule:nonzero;stroke:none"
         id="path192" />
      <path
         d="m 5492.37,1154.05 c 21.61,-30.86 63.61,-20.65 83.08,-1.81 19.47,18.84 27.7,46.15 35.19,72.18 17.12,59.49 34.38,121.89 21.65,182.47 -3.8,18.12 -10.57,36.17 -23.3,49.61 -12.73,13.44 -32.3,21.43 -50.19,16.7 -21.17,-5.6 -34.34,-26.33 -43.85,-46.06 -27.96,-57.99 -42.76,-122.28 -42.98,-186.66 -0.1,-30.07 3.44,-61.61 20.4,-86.43"
         style="fill:#f03d5f;fill-opacity:1;fill-rule:nonzero;stroke:none"
         id="path194" />
      <path
         d="m 5433.04,1109.77 c 23.45,27.84 27.91,68.46 17.47,103.34 -10.44,34.88 -34.03,64.55 -61.2,88.78 -31.88,28.41 -69.34,50.51 -109.61,64.67 -15.85,5.58 -32.57,9.97 -49.29,8.38 -16.73,-1.6 -33.56,-10.15 -41.37,-25.03 -11.53,-22 -0.48,-48.68 11.49,-70.45 21.07,-38.35 45.16,-75.05 71.99,-109.63 21.57,-27.81 46.29,-55.25 79.17,-67.82 32.89,-12.57 67.05,-11.1 84.48,11.71"
         style="fill:#f03d5f;fill-opacity:1;fill-rule:nonzero;stroke:none"
         id="path196" />
      <path
         d="m 5490.91,688.512 c 0.41,-0.032 1.06,4.968 1.95,14.027 1,10.199 2.25,23.012 3.73,38.262 1.78,16.109 4.13,35.269 8.61,56.14 4.46,20.821 11.44,43.379 20.41,66.25 9.27,22.75 20.59,43.418 33.82,59.95 13.14,16.609 28.42,28.629 42.78,35.558 14.31,7.071 27.15,9.949 36.02,11.223 8.95,0.918 13.96,1.617 13.96,2.019 0.01,0.399 -5.01,0.469 -14.21,0.219 -9.1,-0.609 -22.47,-2.918 -37.56,-9.769 -15.13,-6.719 -31.34,-18.93 -45.12,-35.871 -13.88,-16.879 -25.62,-38.008 -35.07,-61.161 -9.12,-23.277 -15.99,-46.078 -20.26,-67.339 -4.25,-21.231 -6.18,-40.598 -7.46,-56.84 -1.21,-16.25 -1.67,-29.418 -1.89,-38.508 -0.21,-9.102 -0.1,-14.141 0.29,-14.16"
         style="fill:#17282f;fill-opacity:1;fill-rule:nonzero;stroke:none"
         id="path198" />
      <path
         d="m 5493.54,717.961 c 0.21,0.008 0.33,2.25 0.39,6.508 -0.01,4.883 -0.03,11.043 -0.05,18.601 -0.05,16.16 -0.04,39.52 0.83,68.379 1.42,57.711 6.39,137.383 15.99,224.951 9.67,87.6 22.48,166.39 34.16,222.92 2.77,14.17 5.54,26.93 8.16,38.09 2.5,11.2 4.63,20.84 6.69,28.65 1.76,7.34 3.2,13.33 4.34,18.09 0.94,4.15 1.33,6.36 1.15,6.41 -0.2,0.06 -0.97,-2.04 -2.27,-6.1 -1.42,-4.68 -3.2,-10.58 -5.4,-17.82 -2.4,-7.74 -4.85,-17.33 -7.66,-28.47 -2.92,-11.12 -5.98,-23.85 -9.01,-37.99 -12.73,-56.46 -26.22,-135.36 -35.92,-223.14 -9.62,-87.759 -13.94,-167.661 -14.32,-225.52 -0.36,-28.93 0.26,-52.34 1,-68.508 0.46,-7.551 0.84,-13.711 1.13,-18.59 0.34,-4.25 0.6,-6.473 0.79,-6.461"
         style="fill:#17282f;fill-opacity:1;fill-rule:nonzero;stroke:none"
         id="path200" />
      <path
         d="m 5493.94,872.07 c 0.4,0.012 0.33,6.91 -0.14,19.43 -0.71,12.488 -2.43,30.551 -5.96,52.672 -3.72,22.058 -8.93,48.258 -17.13,76.728 -7.78,28.56 -18.47,59.41 -32.08,90.79 -26.61,63.13 -62.77,114.74 -94.23,146.71 -7.37,8.49 -15.59,14.6 -22.15,20.61 -3.41,2.87 -6.42,5.74 -9.48,8.01 -3.07,2.13 -5.94,4.1 -8.6,5.93 -10.35,7.08 -16.15,10.82 -16.37,10.47 -0.92,-1.26 23.2,-15.44 53.65,-47.85 30.33,-32.32 65.47,-83.58 91.87,-146.19 13.49,-31.1 24.26,-61.66 32.27,-89.95 8.41,-28.192 14,-54.121 18.22,-75.969 4.01,-21.891 6.34,-39.762 7.74,-52.152 1.16,-12.387 1.99,-19.258 2.39,-19.239"
         style="fill:#17282f;fill-opacity:1;fill-rule:nonzero;stroke:none"
         id="path202" />
      <path
         d="m 5765.21,2847.84 -564.86,-11.64 15.17,-736.6 565.16,-2.54 -15.47,750.78"
         style="fill:#f03d5f;fill-opacity:1;fill-rule:nonzero;stroke:none"
         id="path204" />
      <path
         d="m 5728.59,2820.86 -494.28,-10.18 13.77,-668.07 494.62,-6.49 -14.11,684.74"
         style="fill:#fafaf9;fill-opacity:1;fill-rule:nonzero;stroke:none"
         id="path206" />
      <path
         d="m 5644.53,2697.69 -328.26,5.73 9.62,-466.95 328.01,6.76 -9.37,454.46"
         style="fill:#17282f;fill-opacity:1;fill-rule:nonzero;stroke:none"
         id="path208" />
      <path
         d="m 5325.89,2236.47 323.07,246.66 -332.69,220.29 z"
         style="fill:#33535f;fill-opacity:1;fill-rule:nonzero;stroke:none"
         id="path210" />
      <path
         d="m 5572.91,3458.39 -387.87,-7.98 10.42,-505.81 388.08,-1.74 -10.63,515.53"
         style="fill:#33535f;fill-opacity:1;fill-rule:nonzero;stroke:none"
         id="path212" />
      <path
         d="m 5547.76,3439.88 -339.4,-7 9.44,-458.74 339.65,-4.46 -9.69,470.2"
         style="fill:#fafaf9;fill-opacity:1;fill-rule:nonzero;stroke:none"
         id="path214" />
      <path
         d="m 5490.05,3355.29 -225.41,3.94 6.6,-320.64 225.23,4.64 -6.42,312.06"
         style="fill:#f03d5f;fill-opacity:1;fill-rule:nonzero;stroke:none"
         id="path216" />
      <path
         d="m 5415.85,3203.16 c -0.45,0.21 1.32,3.62 2.59,10.18 1.23,6.45 1.46,16.61 -3.84,27.16 -5.01,10.43 -16.64,20.68 -32.01,22.41 -15.06,2.07 -33.01,-5.93 -40.96,-21.86 -8.25,-15.8 -4.19,-35.03 6.32,-46.01 10.42,-11.44 25.55,-14.84 36.93,-12.78 11.65,1.9 19.74,8.05 24.24,12.83 4.57,4.88 6.3,8.31 6.73,8.07 0.2,-0.08 -0.89,-3.86 -5.21,-9.4 -4.22,-5.41 -12.5,-12.56 -25.1,-15.12 -12.3,-2.73 -29.22,0.51 -41.1,13.12 -11.98,12.07 -16.78,33.8 -7.45,51.65 8.99,18.02 29.39,26.88 46.19,24.26 17.17,-2.21 29.73,-14.02 34.74,-25.58 5.32,-11.71 4.38,-22.59 2.49,-29.2 -1.95,-6.74 -4.37,-9.85 -4.56,-9.73"
         style="fill:#17282f;fill-opacity:1;fill-rule:nonzero;stroke:none"
         id="path218" />
      <path
         d="m 5434.67,3113.02 c -1.26,-0.69 -11.08,14.54 -21.92,34.03 -10.85,19.5 -18.62,35.86 -17.37,36.56 1.26,0.7 11.08,-14.53 21.92,-34.02 10.84,-19.5 18.62,-35.86 17.37,-36.57"
         style="fill:#17282f;fill-opacity:1;fill-rule:nonzero;stroke:none"
         id="path220" />
      <path
         d="m 5775.72,706.23 c 0,-1.441 -1265.24,-2.601 -2825.63,-2.601 -1560.93,0 -2825.899,1.16 -2825.899,2.601 0,1.43 1264.969,2.602 2825.899,2.602 1560.39,0 2825.63,-1.172 2825.63,-2.602"
         style="fill:#17282f;fill-opacity:1;fill-rule:nonzero;stroke:none"
         id="path222" />
      <path
         d="m 4133.01,1950.83 c 0,0 8.91,94.92 17.95,94.15 9.02,-0.76 10.4,-17.6 9.35,-25.76 -1.05,-8.17 0.39,-39.87 0.39,-39.87 l -27.69,-28.52"
         style="fill:#f8a58d;fill-opacity:1;fill-rule:nonzero;stroke:none"
         id="path224" />
      <path
         d="m 4947.26,2028.56 -45.44,-319.7 210.16,-917.372 -580.06,-46.429 249.59,1477.361 c 0,0 165.33,18.42 165.75,-193.86"
         style="fill:#17282f;fill-opacity:1;fill-rule:nonzero;stroke:none"
         id="path226" />
      <path
         d="M 4234.18,413.68 4200.69,35.0586 h 143.14 l 63.08,378.6214 h -172.73"
         style="fill:#f8a58d;fill-opacity:1;fill-rule:nonzero;stroke:none"
         id="path228" />
      <path
         d="m 4200.69,35.0586 c 0,0 -96.56,-12.4688 -113.8,-24.9375 l 253.07,3.0586 3.87,21.8789 h -143.14"
         style="fill:#f8a58d;fill-opacity:1;fill-rule:nonzero;stroke:none"
         id="path230" />
      <path
         d="M 4086.89,10.1211 V 0.0117188 L 4347.52,2.78125 V 13.6719 l -260.63,-3.5508"
         style="fill:#f03d5f;fill-opacity:1;fill-rule:nonzero;stroke:none"
         id="path232" />
      <path
         d="m 4179.07,4.28125 c -1.33,-0.58203 -5.48,7.16795 -13.87,13.25785 -8.28,6.2695 -16.89,7.9804 -16.72,9.4297 -0.12,1.3203 10.1,1.7734 19.69,-5.4102 9.66,-7.0898 12.2,-17.00001 10.9,-17.27735"
         style="fill:#f03d5f;fill-opacity:1;fill-rule:nonzero;stroke:none"
         id="path234" />
      <path
         d="m 4347.09,42.6016 c 0.25,-1.4805 -17.39,-4.9414 -37.17,-14.3008 -19.86,-9.1797 -33.83,-20.51174 -34.79,-19.35939 -0.92,0.85937 12.04,14.32809 32.67,23.89839 20.57,9.6993 39.21,11.0196 39.29,9.7618"
         style="fill:#f03d5f;fill-opacity:1;fill-rule:nonzero;stroke:none"
         id="path236" />
      <path
         d="m 4341.22,48.7617 c -0.07,-1.3828 -31.59,-0.9101 -70.41,1.0469 -38.83,1.9531 -70.23,4.6602 -70.17,6.0508 0.07,1.3711 31.6,0.9023 70.42,-1.0586 38.81,-1.9492 70.24,-4.6602 70.16,-6.0391"
         style="fill:#f03d5f;fill-opacity:1;fill-rule:nonzero;stroke:none"
         id="path238" />
      <path
         d="m 4358.02,98.5313 c 0.25,-1.3594 -34.45,-8.8321 -77.48,-16.6915 -43.06,-7.8593 -78.15,-13.121 -78.39,-11.7578 -0.26,1.3594 34.43,8.8282 77.49,16.6797 43.04,7.8672 78.13,13.1289 78.38,11.7696"
         style="fill:#f03d5f;fill-opacity:1;fill-rule:nonzero;stroke:none"
         id="path240" />
      <path
         d="m 4355.47,96.7617 c -0.09,-0.5703 -7.6,-0.1094 -18.9,4.1173 -5.6,2.141 -12.13,5.262 -18.75,9.75 -3.34,2.269 -6.61,4.73 -9.96,7.762 -1.65,1.578 -3.37,3.519 -4.34,6.168 -0.93,2.679 -0.98,5.812 0.79,8.632 1.83,2.981 5.58,3.86 8.14,3.539 2.69,-0.242 4.91,-1.14 6.93,-1.968 4.11,-1.692 7.85,-3.813 11.17,-6.16 6.62,-4.731 11.5,-10.301 14.78,-15.422 6.59,-10.371 7.2,-18.1683 6.7,-18.1995 -0.83,-0.2891 -2.67,6.9605 -9.6,16.1675 -3.44,4.563 -8.25,9.5 -14.5,13.653 -3.13,2.07 -6.6,3.929 -10.38,5.41 -3.69,1.66 -7.95,2.348 -9.06,0.25 -1.52,-2.379 -0.12,-5.981 2.77,-8.539 2.91,-2.723 6.13,-5.293 9.2,-7.512 6.17,-4.48 12.26,-7.789 17.49,-10.281 10.55,-4.8985 17.69,-6.5899 17.52,-7.3673"
         style="fill:#f03d5f;fill-opacity:1;fill-rule:nonzero;stroke:none"
         id="path242" />
      <path
         d="m 4354.18,93.3594 c -0.43,-0.2188 -3.84,6.6526 -3.56,18.6716 0.14,5.949 1.36,13.09 4.4,20.457 1.51,3.684 3.53,7.371 6.03,10.922 1.24,1.828 2.59,3.469 4.17,5.25 1.61,1.649 3.97,3.762 7.49,3.731 3.51,-0.161 5.95,-2.481 7.24,-4.93 1.28,-2.563 1.43,-5.141 1.37,-7.391 -0.2,-4.41 -0.9,-8.55 -2.01,-12.39 -2.2,-7.7 -5.93,-13.961 -9.64,-18.629 -7.68,-9.3205 -14.81,-12.1799 -14.99,-11.7112 -0.51,0.6915 5.7,4.5822 12.15,13.8202 3.12,4.641 6.26,10.602 8.02,17.719 0.91,3.543 1.45,7.391 1.57,11.293 0.31,3.75 -1.5,7.16 -3.86,7.219 -2.19,0.238 -5.26,-3.789 -7.52,-6.832 -2.33,-3.207 -4.29,-6.559 -5.79,-9.911 -3.03,-6.707 -4.52,-13.277 -5.1,-18.859 -1.17,-11.219 0.9,-18.2499 0.03,-18.4296"
         style="fill:#f03d5f;fill-opacity:1;fill-rule:nonzero;stroke:none"
         id="path244" />
      <path
         d="m 4373.45,34.2695 c -1.17,-0.6093 -8.84,12.0391 -14.4,29.3203 -5.61,17.2618 -6.81,32 -5.5,32.1993 1.41,0.2304 4.77,-13.8203 10.26,-30.6602 5.42,-16.8594 10.93,-30.2187 9.64,-30.8594"
         style="fill:#f03d5f;fill-opacity:1;fill-rule:nonzero;stroke:none"
         id="path246" />
      <path
         d="m 4390.54,47.7109 c -0.75,-1.0507 -13.69,7.4493 -25.3,22.3594 -11.68,14.8594 -16.81,29.4688 -15.6,29.9417 1.33,0.609 8.29,-12.5628 19.55,-26.8518 11.15,-14.3594 22.27,-24.3008 21.35,-25.4493"
         style="fill:#f03d5f;fill-opacity:1;fill-rule:nonzero;stroke:none"
         id="path248" />
      <path
         d="m 4768.32,382.629 293.17,-232.41 69.76,102.031 -262.18,285.32 -100.75,-154.941"
         style="fill:#f8a58d;fill-opacity:1;fill-rule:nonzero;stroke:none"
         id="path250" />
      <path
         d="m 5040.8,144.539 c 0,0 -45.08,-86.2968 -44.73,-107.5781 l 142.42,209.2191 -15.73,15.699 -81.96,-117.34"
         style="fill:#f8a58d;fill-opacity:1;fill-rule:nonzero;stroke:none"
         id="path252" />
      <path
         d="m 4996.07,36.9609 8.3,-5.8007 146.97,215.2618 -8.92,6.226 -146.35,-215.6871"
         style="fill:#f03d5f;fill-opacity:1;fill-rule:nonzero;stroke:none"
         id="path254" />
      <path
         d="m 5053.65,109.191 c -0.29,-1.429 -9.01,-0.39 -18.82,-3.789 -9.87,-3.203 -16.21,-9.2731 -17.3,-8.3122 -1.15,0.6719 4.34,9.3012 15.72,13.0512 11.34,3.859 20.92,0.281 20.4,-0.95"
         style="fill:#f03d5f;fill-opacity:1;fill-rule:nonzero;stroke:none"
         id="path256" />
      <path
         d="m 5118.45,268.871 c 1.35,-0.629 -5.91,-17.09 -9.56,-38.66 -3.84,-21.539 -2.56,-39.469 -4.06,-39.609 -1.24,-0.262 -4.84,18.078 -0.87,40.468 3.81,22.41 13.41,38.469 14.49,37.801"
         style="fill:#f03d5f;fill-opacity:1;fill-rule:nonzero;stroke:none"
         id="path258" />
      <path
         d="m 5110.44,274.398 c 1.09,-0.847 -15.56,-24.117 -37.18,-51.968 -21.64,-27.871 -40.05,-49.77 -41.14,-48.918 -1.09,0.847 15.56,24.117 37.19,51.98 21.62,27.86 40.04,49.758 41.13,48.906"
         style="fill:#f03d5f;fill-opacity:1;fill-rule:nonzero;stroke:none"
         id="path260" />
      <path
         d="m 5078.86,309.859 c 1.26,-0.578 -10.76,-29.527 -26.84,-64.66 -16.08,-35.14 -30.13,-63.148 -31.39,-62.578 -1.25,0.578 10.76,29.527 26.84,64.66 16.08,35.141 30.13,63.16 31.39,62.578"
         style="fill:#f03d5f;fill-opacity:1;fill-rule:nonzero;stroke:none"
         id="path262" />
      <path
         d="m 5078.85,306.75 c 0.42,-0.398 -4.26,-6.289 -14.19,-13.129 -4.98,-3.371 -11.27,-6.93 -18.74,-9.801 -3.77,-1.422 -7.66,-2.699 -12.06,-3.711 -2.25,-0.461 -4.83,-0.75 -7.55,-0.039 -2.74,0.789 -5.32,2.532 -6.63,5.602 -1.39,3.207 0.04,6.789 1.78,8.699 1.72,2.059 3.74,3.379 5.57,4.551 3.73,2.41 7.62,4.258 11.44,5.637 7.66,2.722 15.05,3.531 21.11,3.281 12.28,-0.531 19.01,-4.5 18.76,-4.918 -0.24,-0.84 -7.24,1.777 -18.75,1.379 -5.71,-0.199 -12.52,-1.321 -19.5,-4.071 -3.49,-1.378 -7,-3.148 -10.37,-5.41 -3.48,-2.082 -6.49,-5.172 -5.39,-7.281 1.07,-2.609 4.82,-3.527 8.58,-2.617 3.9,0.828 7.84,2 11.42,3.238 7.21,2.488 13.4,5.59 18.44,8.461 10.06,5.828 15.54,10.719 16.08,10.129"
         style="fill:#f03d5f;fill-opacity:1;fill-rule:nonzero;stroke:none"
         id="path264" />
      <path
         d="m 5080.9,303.75 c -0.07,-0.48 -7.65,0.648 -17.35,7.77 -4.8,3.531 -9.96,8.609 -14.25,15.32 -2.15,3.351 -4.02,7.121 -5.5,11.199 -0.79,2.063 -1.36,4.109 -1.91,6.43 -0.43,2.261 -0.82,5.402 1.22,8.269 2.14,2.793 5.44,3.461 8.2,3.121 2.83,-0.41 5.02,-1.777 6.83,-3.109 3.51,-2.691 6.5,-5.629 9.01,-8.75 5.06,-6.211 8.06,-12.852 9.75,-18.57 3.25,-11.621 1.52,-19.11 1.02,-18.989 -0.86,-0.019 -0.49,7.297 -4.37,17.868 -2.02,5.222 -5.11,11.203 -9.94,16.73 -2.38,2.77 -5.22,5.41 -8.36,7.75 -2.9,2.41 -6.71,2.871 -8.12,0.973 -1.46,-1.66 0.1,-6.481 1.29,-10.082 1.3,-3.758 2.92,-7.258 4.81,-10.418 3.76,-6.321 8.29,-11.313 12.53,-14.981 8.55,-7.39 15.48,-9.711 15.14,-10.531"
         style="fill:#f03d5f;fill-opacity:1;fill-rule:nonzero;stroke:none"
         id="path266" />
      <path
         d="m 5140.37,285.711 c -0.16,-1.32 -14.94,-0.352 -32.27,4.988 -17.38,5.27 -30.15,12.731 -29.55,13.922 0.61,1.289 14.06,-4 31.01,-9.141 16.91,-5.218 31.03,-8.351 30.81,-9.769"
         style="fill:#f03d5f;fill-opacity:1;fill-rule:nonzero;stroke:none"
         id="path268" />
      <path
         d="m 5139.13,307.41 c 0.45,-1.211 -13.93,-6.949 -32.8,-7.918 -18.88,-1.082 -33.79,3.078 -33.49,4.34 0.27,1.449 15.05,-0.402 33.21,0.66 18.16,0.906 32.67,4.328 33.08,2.918"
         style="fill:#f03d5f;fill-opacity:1;fill-rule:nonzero;stroke:none"
         id="path270" />
      <path
         d="m 4485.66,1524.83 c 0,0 -111.96,-743.83 -95.67,-779.771 16.29,-35.957 378.94,-407.27 378.94,-407.27 l 136.09,233.102 c 0,0 -239.98,265.871 -236.54,279.668 3.45,13.8 173.02,734.101 173.02,734.101 l -355.84,-59.83"
         style="fill:#f03d5f;fill-opacity:1;fill-rule:nonzero;stroke:none"
         id="path272" />
      <path
         d="m 4511.54,604.262 95.58,209.957 110.53,235.891 c -66.01,-96.598 -124.19,-198.45 -170.38,-308.391 -18.23,-45.11 -30.16,-90.93 -35.73,-137.457"
         style="fill:#f03d5f;fill-opacity:1;fill-rule:nonzero;stroke:none"
         id="path274" />
      <path
         d="m 4511.54,604.262 c 5.57,46.527 17.5,92.347 35.73,137.457 46.19,109.941 104.37,211.793 170.38,308.391 l -4.12,-8.77 -106.41,-227.121 -94.96,-208.61 -0.62,-1.347"
         style="fill:#9c2438;fill-opacity:1;fill-rule:nonzero;stroke:none"
         id="path276" />
      <path
         d="m 4445.87,1250.26 c 1.11,7.88 91.43,211.03 91.43,211.03 l -43.85,61.86 -7.79,1.68 -39.79,-274.57"
         style="fill:#f03d5f;fill-opacity:1;fill-rule:nonzero;stroke:none"
         id="path278" />
      <path
         d="m 4445.87,1250.26 39.79,274.57 7.79,-1.68 43.85,-61.86 c 0,0 -90.32,-203.15 -91.43,-211.03"
         style="fill:#9c2438;fill-opacity:1;fill-rule:nonzero;stroke:none"
         id="path280" />
      <path
         d="m 4905.06,1594.84 6.77,-27.6 c 19.93,-81.33 7.7,-167.19 -34.14,-239.72 L 4574.1,801.301 c -21.5,-37.281 -37.19,-77.61 -46.52,-119.621 l -75.6,-340.301 c 0,0 -238.64,-8.078 -248.99,0 -10.35,8.101 30.79,233.18 58.2,403.68 20.68,128.582 192.76,527.741 276.11,716.231 l -51.64,63.54 89.72,14.97 329.68,55.04"
         style="fill:#f03d5f;fill-opacity:1;fill-rule:nonzero;stroke:none"
         id="path282" />
      <path
         d="m 4451.98,341.379 c 0.02,-0.34 -3.46,-0.887 -9.79,-1.59 -6.34,-0.707 -15.52,-1.469 -26.88,-2.219 -22.72,-1.488 -54.18,-2.582 -88.91,-2.511 -34.75,0.082 -66.18,1.152 -88.9,2.261 -11.37,0.559 -20.56,1.121 -26.9,1.629 -6.34,0.52 -9.85,0.973 -9.84,1.313 0.01,0.34 3.54,0.558 9.9,0.636 7.48,0 16.46,-0.019 26.94,-0.039 24,-0.218 54.77,-0.488 88.81,-0.8 34.65,-0.071 66.03,0.461 88.75,1.05 10.47,0.243 19.43,0.45 26.9,0.621 6.37,0.11 9.9,0 9.92,-0.351"
         style="fill:#17282f;fill-opacity:1;fill-rule:nonzero;stroke:none"
         id="path284" />
      <path
         d="m 4465.13,405.238 c 0,-1.379 -57.39,-2.277 -128.15,-2.019 -70.79,0.261 -128.15,1.601 -128.14,2.98 0,1.383 57.37,2.281 128.16,2.02 70.76,-0.258 128.14,-1.59 128.13,-2.981"
         style="fill:#17282f;fill-opacity:1;fill-rule:nonzero;stroke:none"
         id="path286" />
      <path
         d="m 4863.31,618.852 c 0.29,-0.18 -1.55,-3.52 -5.13,-9.391 -4.21,-6.742 -9.36,-14.961 -15.43,-24.629 -13.81,-21.703 -31.7,-49.781 -51.49,-80.852 -19.67,-31.14 -37.45,-59.308 -51.19,-81.05 -6.17,-9.61 -11.41,-17.782 -15.7,-24.469 -3.78,-5.731 -6.02,-8.813 -6.31,-8.641 -0.31,0.18 1.36,3.602 4.64,9.649 3.27,6.043 8.16,14.691 14.34,25.293 12.36,21.218 29.92,50.258 49.99,81.91 20.07,31.629 38.85,59.887 52.77,80.109 6.97,10.11 12.69,18.239 16.77,23.758 4.07,5.543 6.46,8.512 6.74,8.313"
         style="fill:#17282f;fill-opacity:1;fill-rule:nonzero;stroke:none"
         id="path288" />
      <path
         d="m 4754.62,357.711 c -1.32,-0.441 -6.51,13.559 -11.62,31.238 -5.1,17.699 -8.15,32.313 -6.81,32.641 1.34,0.332 6.54,-13.649 11.62,-31.25 5.07,-17.59 8.12,-32.199 6.81,-32.629"
         style="fill:#17282f;fill-opacity:1;fill-rule:nonzero;stroke:none"
         id="path290" />
      <path
         d="m 4775.77,358.359 c -1.37,-0.23 -6.38,23.231 -11.22,52.383 -4.84,29.168 -7.66,52.988 -6.29,53.207 1.36,0.231 6.39,-23.219 11.22,-52.39 4.84,-29.149 7.66,-52.977 6.29,-53.2"
         style="fill:#17282f;fill-opacity:1;fill-rule:nonzero;stroke:none"
         id="path292" />
      <path
         d="m 4803.55,397.91 c -1.38,-0.269 -6.34,20.32 -12.55,45.629 -6.18,25.332 -11.28,45.871 -9.93,46.281 1.29,0.399 8.58,-19.609 14.79,-45.09 6.25,-25.468 9.02,-46.582 7.69,-46.82"
         style="fill:#17282f;fill-opacity:1;fill-rule:nonzero;stroke:none"
         id="path294" />
      <path
         d="m 4827.1,452.52 c -1.35,-0.309 -6.42,19.472 -11.32,44.171 -4.9,24.7 -7.76,44.911 -6.4,45.141 1.36,0.227 6.43,-19.543 11.31,-44.172 4.89,-24.621 7.76,-44.828 6.41,-45.14"
         style="fill:#17282f;fill-opacity:1;fill-rule:nonzero;stroke:none"
         id="path296" />
      <path
         d="m 4857.63,497.832 c -1.42,-0.191 -5.06,19.578 -10.7,43.629 -5.56,24.078 -11.02,43.418 -9.66,43.879 1.26,0.449 8.9,-18.379 14.54,-42.75 5.69,-24.328 7.15,-44.61 5.82,-44.758"
         style="fill:#17282f;fill-opacity:1;fill-rule:nonzero;stroke:none"
         id="path298" />
      <path
         d="m 4884.79,536.238 c -1.35,-0.34 -6.46,15.582 -11.42,35.543 -4.96,19.969 -7.9,36.43 -6.55,36.758 1.33,0.332 6.44,-15.57 11.4,-35.547 4.96,-19.972 7.9,-36.422 6.57,-36.754"
         style="fill:#17282f;fill-opacity:1;fill-rule:nonzero;stroke:none"
         id="path300" />
      <path
         d="m 4327.75,407.75 c 0.6,-1.289 -26.4,-15.039 -59.39,-32.52 -33.03,-17.449 -59.58,-32.039 -60.3,-30.82 -0.35,0.59 5.85,5 16.29,11.488 10.42,6.481 25.1,14.993 41.67,23.75 16.56,8.75 31.85,16.122 43.08,21.094 11.22,4.977 18.36,7.629 18.65,7.008"
         style="fill:#17282f;fill-opacity:1;fill-rule:nonzero;stroke:none"
         id="path302" />
      <path
         d="m 4401.27,406.641 c 0.33,-0.602 -6.82,-5.321 -18.77,-12.25 -11.95,-6.942 -28.74,-16.032 -47.64,-25.379 -18.91,-9.34 -36.33,-17.16 -49.11,-22.43 -12.77,-5.281 -20.86,-8.094 -21.13,-7.473 -0.27,0.641 7.3,4.602 19.68,10.692 14.08,6.91 30.36,14.879 48.35,23.687 17.91,8.934 34.14,17.012 48.18,24.024 12.35,6.117 20.1,9.738 20.44,9.129"
         style="fill:#17282f;fill-opacity:1;fill-rule:nonzero;stroke:none"
         id="path304" />
      <path
         d="m 4457.35,406.672 c 0.84,-1.07 -19.75,-18.84 -46.86,-38.563 -27.11,-19.738 -50.35,-33.879 -51.1,-32.75 -0.79,1.172 21.15,17.121 48.15,36.789 27.02,19.653 48.93,35.622 49.81,34.524"
         style="fill:#17282f;fill-opacity:1;fill-rule:nonzero;stroke:none"
         id="path306" />
      <path
         d="m 4463.44,371.469 c 0.84,-1.09 -8.48,-9.68 -20.81,-19.168 -12.35,-9.481 -23.03,-16.289 -23.87,-15.192 -0.84,1.09 8.48,9.672 20.81,19.172 12.34,9.481 23.03,16.278 23.87,15.188"
         style="fill:#17282f;fill-opacity:1;fill-rule:nonzero;stroke:none"
         id="path308" />
      <path
         d="m 4262.44,409 c 0.7,-1.191 -13.11,-10.73 -30.88,-21.328 -17.76,-10.59 -32.73,-18.211 -33.43,-17.031 -0.72,1.191 13.11,10.738 30.87,21.328 17.76,10.59 32.73,18.211 33.44,17.031"
         style="fill:#17282f;fill-opacity:1;fill-rule:nonzero;stroke:none"
         id="path310" />
      <path
         d="m 4530.74,1462.72 c 0.66,-0.29 -4.4,-12.92 -12.68,-33.26 -8.29,-20.35 -19.72,-48.45 -31.87,-79.67 -12.14,-31.24 -22.69,-59.68 -30.33,-80.27 -7.64,-20.6 -12.43,-33.32 -13.12,-33.1 -0.33,0.11 0.44,3.43 2.11,9.36 1.65,5.93 4.27,14.43 7.67,24.9 6.79,20.93 16.85,49.62 29.01,80.93 12.17,31.28 24.14,59.23 33.27,79.25 4.58,10.01 8.39,18.04 11.18,23.54 2.77,5.5 4.45,8.47 4.76,8.32"
         style="fill:#17282f;fill-opacity:1;fill-rule:nonzero;stroke:none"
         id="path312" />
      <path
         d="m 4505.79,580.48 c -0.17,0.012 -0.03,2.051 0.4,5.891 0.56,4.379 1.27,9.938 2.14,16.809 0.88,7.32 2.21,16.23 4.46,26.461 2.13,10.23 4.15,22.007 7.76,34.679 1.68,6.391 3.42,13.059 5.25,20 1.95,6.93 4.38,14.012 6.68,21.399 4.39,14.871 10.5,30.269 16.51,46.621 12.94,32.351 28.94,67.191 47.79,102.691 38.06,70.848 78.81,131.219 108.69,174.449 14.98,21.6 27.35,38.92 36,50.79 4.13,5.56 7.46,10.07 10.08,13.61 2.35,3.08 3.65,4.65 3.79,4.55 0.14,-0.09 -0.89,-1.86 -2.97,-5.12 -2.42,-3.68 -5.49,-8.37 -9.29,-14.15 -8.56,-12.75 -20.32,-30.26 -34.69,-51.67 -29.11,-43.701 -69.29,-104.26 -107.2,-174.818 -18.76,-35.352 -34.8,-69.953 -47.92,-102.031 -6.08,-16.211 -12.31,-31.469 -16.85,-46.211 -2.38,-7.321 -4.88,-14.348 -6.92,-21.2 -1.91,-6.878 -3.76,-13.492 -5.53,-19.82 -3.81,-12.539 -6.06,-24.199 -8.44,-34.34 -2.5,-10.129 -4.1,-18.961 -5.28,-26.199 -1.25,-6.801 -2.26,-12.312 -3.05,-16.633 -0.76,-3.797 -1.24,-5.789 -1.41,-5.758"
         style="fill:#17282f;fill-opacity:1;fill-rule:nonzero;stroke:none"
         id="path314" />
      <path
         d="m 4803.5,2221.37 -234.89,-19.97 c 0,0 -70.47,-1.63 -146.77,-180.37 l -55.22,-177 99.31,-21.16 0.21,-9.72 19.52,-288.32 423.92,68.65 c 0.96,36.61 -19.64,89.96 -35.23,140.14 15.82,39.56 82.78,211.93 82.65,294.94 -0.27,177.48 -153.5,192.81 -153.5,192.81"
         style="fill:#ffffff;fill-opacity:1;fill-rule:nonzero;stroke:none"
         id="path316" />
      <path
         d="m 4905.02,570.891 c 0.3,-0.172 -1.25,-3.629 -4.33,-9.731 -3.05,-6.109 -7.7,-14.84 -13.61,-25.531 -11.79,-21.399 -28.8,-50.527 -47.97,-82.449 -18.9,-31.371 -35.99,-59.731 -49.21,-81.649 -5.88,-9.711 -10.88,-17.949 -14.98,-24.722 -3.58,-5.797 -5.71,-8.93 -6.01,-8.77 -0.31,0.172 1.25,3.633 4.31,9.731 3.06,6.109 7.72,14.832 13.62,25.531 11.78,21.379 28.8,50.519 47.98,82.461 18.9,31.359 35.99,59.718 49.19,81.636 5.88,9.704 10.88,17.954 14.98,24.723 3.6,5.801 5.73,8.93 6.03,8.77"
         style="fill:#17282f;fill-opacity:1;fill-rule:nonzero;stroke:none"
         id="path318" />
      <path
         d="m 4849.32,1797.46 c 0.34,-1.3 -14.29,-6.19 -33.06,-8.68 -18.78,-2.54 -34.18,-1.66 -34.18,-0.33 -0.03,1.43 15.06,2.79 33.52,5.29 18.44,2.44 33.37,5.09 33.72,3.72"
         style="fill:#ffffff;fill-opacity:1;fill-rule:nonzero;stroke:none"
         id="path320" />
      <path
         d="m 4486.74,1811.53 -4.87,-312.87 127.02,712.64 c -42.19,7.49 -120.9,-25.76 -150.47,-67.87 -21.16,-25.15 -32.81,-83.17 -91.8,-257.76 l -36.21,-118.48 -146.76,160.7 -98.99,-89.4 c 0,0 170.68,-278.7 241.92,-294.14 97.06,-21.03 160.16,267.18 160.16,267.18"
         style="fill:#33535f;fill-opacity:1;fill-rule:nonzero;stroke:none"
         id="path322" />
      <path
         d="m 4507.03,2101.08 c 0.34,-0.07 -0.14,-4.4 -1.3,-12.19 -1.35,-8.78 -3.05,-19.81 -5.09,-32.94 -4.34,-27.78 -10.05,-66.21 -15.33,-108.78 -5.24,-42.59 -9.04,-81.26 -11.59,-109.26 -1.23,-13.23 -2.25,-24.34 -3.08,-33.19 -0.77,-7.83 -1.35,-12.16 -1.7,-12.14 -0.35,0.02 -0.41,4.39 -0.24,12.26 0.16,7.88 0.66,19.27 1.49,33.33 1.65,28.12 4.9,66.92 10.15,109.61 5.29,42.68 11.57,81.1 16.82,108.78 2.61,13.84 4.9,25.01 6.66,32.68 1.75,7.69 2.88,11.91 3.21,11.84"
         style="fill:#17282f;fill-opacity:1;fill-rule:nonzero;stroke:none"
         id="path324" />
      <path
         d="m 4474.12,2114.81 c -0.54,1.39 19.21,9.74 41.53,23.57 22.42,13.7 38.76,27.56 39.76,26.46 0.91,-0.89 -14.24,-16.71 -37.13,-30.72 -22.82,-14.12 -43.77,-20.52 -44.16,-19.31"
         style="fill:#ffffff;fill-opacity:1;fill-rule:nonzero;stroke:none"
         id="path326" />
      <path
         d="m 4433.48,1908.46 c -1.41,-0.29 -5.79,16.05 -12.27,35.78 -6.41,19.76 -12.49,35.54 -11.18,36.14 1.2,0.56 9.42,-14.5 15.94,-34.59 6.57,-20.05 8.82,-37.08 7.51,-37.33"
         style="fill:#ffffff;fill-opacity:1;fill-rule:nonzero;stroke:none"
         id="path328" />
      <path
         d="m 4536.52,2021.03 c 1.33,-0.07 1.33,-18.87 -2.97,-41.56 -4.23,-22.72 -11.06,-40.23 -12.32,-39.81 -1.37,0.43 3.24,18.36 7.4,40.74 4.24,22.34 6.46,40.73 7.89,40.63"
         style="fill:#ffffff;fill-opacity:1;fill-rule:nonzero;stroke:none"
         id="path330" />
      <path
         d="m 4393.62,1748.31 c 1.4,-0.3 -0.99,-16.62 -3.05,-36.78 -2.13,-20.16 -3.14,-36.62 -4.57,-36.62 -1.33,-0.02 -2.56,16.67 -0.41,37.14 2.1,20.46 6.72,36.55 8.03,36.26"
         style="fill:#ffffff;fill-opacity:1;fill-rule:nonzero;stroke:none"
         id="path332" />
      <path
         d="m 4205.86,1750.76 c -1.07,-0.76 -14.24,16.43 -26.56,40.03 -12.4,23.57 -19.03,44.18 -17.79,44.63 1.35,0.52 9.98,-19.04 22.22,-42.31 12.16,-23.31 23.33,-41.54 22.13,-42.35"
         style="fill:#ffffff;fill-opacity:1;fill-rule:nonzero;stroke:none"
         id="path334" />
      <path
         d="m 4313.31,1743.39 c 0.72,-1.12 -11.09,-9.74 -27.43,-17.15 -16.32,-7.48 -30.57,-10.75 -30.95,-9.47 -0.43,1.36 12.87,6.68 28.88,14.02 16.01,7.26 28.76,13.83 29.5,12.6"
         style="fill:#ffffff;fill-opacity:1;fill-rule:nonzero;stroke:none"
         id="path336" />
      <path
         d="m 4821.95,1644.23 73.5,-873.64 221.34,20.898 -210.17,917.372 25.68,246.29 -110.35,-310.92"
         style="fill:#33535f;fill-opacity:1;fill-rule:nonzero;stroke:none"
         id="path338" />
      <path
         d="m 4895.45,770.582 c -1.38,-0.102 -17.63,193.707 -36.3,432.848 -18.67,239.22 -32.68,433.17 -31.31,433.28 1.38,0.1 17.63,-193.67 36.3,-432.89 18.66,-239.14 32.69,-433.129 31.31,-433.238"
         style="fill:#17282f;fill-opacity:1;fill-rule:nonzero;stroke:none"
         id="path340" />
      <path
         d="m 4874.09,1624.04 c -1.28,0.54 2.92,13.43 9.37,28.8 6.44,15.38 12.7,27.4 13.97,26.86 1.28,-0.52 -2.92,-13.41 -9.36,-28.8 -6.45,-15.37 -12.7,-27.4 -13.98,-26.86"
         style="fill:#ffffff;fill-opacity:1;fill-rule:nonzero;stroke:none"
         id="path342" />
      <path
         d="m 4935.19,1494.11 c -1.15,-0.9 -12.22,11.82 -27.66,25.54 -15.38,13.79 -29.27,23.35 -28.5,24.59 0.64,1.15 16.05,-6.71 31.83,-20.86 15.84,-14.09 25.39,-28.51 24.33,-29.27"
         style="fill:#ffffff;fill-opacity:1;fill-rule:nonzero;stroke:none"
         id="path344" />
      <path
         d="m 4921.74,1318.76 c -1.2,0.82 6.48,13.64 13.83,30.39 7.44,16.72 11.74,31.02 13.15,30.69 1.29,-0.24 -0.92,-15.49 -8.57,-32.71 -7.58,-17.26 -17.37,-29.15 -18.41,-28.37"
         style="fill:#ffffff;fill-opacity:1;fill-rule:nonzero;stroke:none"
         id="path346" />
      <path
         d="m 4969.37,1178.04 c -0.91,-1.04 -14.58,9.32 -30.54,23.15 -15.97,13.83 -28.18,25.88 -27.27,26.92 0.9,1.05 14.57,-9.31 30.54,-23.14 15.97,-13.83 28.17,-25.88 27.27,-26.93"
         style="fill:#ffffff;fill-opacity:1;fill-rule:nonzero;stroke:none"
         id="path348" />
      <path
         d="m 5009.63,1081.44 c -1.39,0.01 -2.38,18.92 -2.24,42.23 0.15,23.32 1.39,42.21 2.78,42.2 1.37,-0.01 2.38,-18.92 2.22,-42.23 -0.14,-23.31 -1.38,-42.21 -2.76,-42.2"
         style="fill:#ffffff;fill-opacity:1;fill-rule:nonzero;stroke:none"
         id="path350" />
      <path
         d="m 4938.46,1015.83 c -1.44,-0.02 -2.67,15.09 -5.31,33.52 -2.56,18.44 -5.56,33.3 -4.18,33.68 1.28,0.37 6.52,-14.18 9.15,-32.98 2.67,-18.79 1.67,-34.22 0.34,-34.22"
         style="fill:#ffffff;fill-opacity:1;fill-rule:nonzero;stroke:none"
         id="path352" />
      <path
         d="m 5011.79,932.262 c -0.21,-1.364 -14.38,-0.391 -31.64,2.179 -17.28,2.571 -31.11,5.758 -30.91,7.129 0.2,1.36 14.36,0.391 31.64,-2.191 17.27,-2.57 31.11,-5.75 30.91,-7.117"
         style="fill:#ffffff;fill-opacity:1;fill-rule:nonzero;stroke:none"
         id="path354" />
      <path
         d="m 4999.9,821.109 c -1.15,0.762 6.87,14.891 17.89,31.571 11.04,16.679 20.91,29.582 22.06,28.82 1.16,-0.758 -6.85,-14.898 -17.89,-31.578 -11.02,-16.672 -20.91,-29.582 -22.06,-28.813"
         style="fill:#ffffff;fill-opacity:1;fill-rule:nonzero;stroke:none"
         id="path356" />
      <path
         d="m 3825.26,2034.65 c -15.04,-0.51 -29.9,-0.21 -44.6,0.85 -209.24,15.24 -378.19,186.68 -385.46,400.99 -7.79,229.36 172.48,422.29 401.83,430.07 15.15,0.52 30.18,0.22 45.08,-0.86 94.42,-6.87 183.03,-45.43 253.18,-110.99 81.23,-75.9 128.04,-178.88 131.81,-289.99 3.77,-111.11 -35.96,-217.03 -111.85,-298.26 -75.89,-81.23 -178.87,-128.04 -289.99,-131.81 z m 670.4,-496.36 -371.81,506.56 c 21.79,16.86 42.44,35.49 61.61,56.02 93.42,99.98 142.31,230.35 137.67,367.11 -4.63,136.75 -62.26,263.52 -162.24,356.93 -99.97,93.42 -230.39,142.3 -367.11,137.68 -136.76,-4.64 -263.53,-62.26 -356.93,-162.24 -93.43,-99.98 -142.33,-230.36 -137.68,-367.12 8.96,-263.8 216.89,-474.84 474.46,-493.55 18.06,-1.3 36.39,-1.69 54.9,-1.05 75.71,2.57 148.33,21.44 213.96,54.69 l 375.71,-511.89 c 15.71,-21.38 45.77,-25.99 67.16,-10.3 21.4,15.7 26.01,45.77 10.3,67.16"
         style="fill:#17282f;fill-opacity:1;fill-rule:nonzero;stroke:none"
         id="path358" />
      <path
         d="m 4348.02,1813.74 -44.06,-150.42 c 0,0 230.75,-83.94 355.73,-82.4 117.09,1.44 150.64,14.71 191.84,109.28 41.21,94.56 87.96,203.18 97.77,265.75 0,0 66.09,287.95 -186.06,262.24 l -6.81,-225.23 c 0,0 -27.93,-92.3 -29.95,-97.64 -18.81,-49.84 -43.19,-122.76 -66.79,-131.58 -23.6,-8.83 -311.67,50 -311.67,50"
         style="fill:#33535f;fill-opacity:1;fill-rule:nonzero;stroke:none"
         id="path360" />
      <path
         d="m 4710.18,1693.2 c -1.12,-0.76 -12.86,14.47 -24.75,34.92 -11.95,20.43 -19.43,38.14 -18.21,38.73 1.26,0.63 10.68,-15.95 22.53,-36.21 11.8,-20.28 21.6,-36.64 20.43,-37.44"
         style="fill:#17282f;fill-opacity:1;fill-rule:nonzero;stroke:none"
         id="path362" />
      <path
         d="m 4733.85,1716.75 c -0.85,-1.09 -15.86,9.13 -33.53,22.82 -17.66,13.69 -31.3,25.67 -30.46,26.76 0.85,1.1 15.86,-9.12 33.53,-22.81 17.66,-13.69 31.31,-25.67 30.46,-26.77"
         style="fill:#17282f;fill-opacity:1;fill-rule:nonzero;stroke:none"
         id="path364" />
      <path
         d="m 4812.17,2127.36 c 1.28,-0.53 -10.6,-32.09 -26.53,-70.48 -15.92,-38.41 -29.87,-69.1 -31.14,-68.57 -1.28,0.52 10.6,32.08 26.53,70.49 15.92,38.39 29.87,69.09 31.14,68.56"
         style="fill:#17282f;fill-opacity:1;fill-rule:nonzero;stroke:none"
         id="path366" />
      <path
         d="m 4939.21,1913.05 c 0.32,-0.11 -0.85,-4.2 -3.25,-11.47 -2.84,-8.21 -6.39,-18.47 -10.6,-30.65 -9.15,-25.8 -22.04,-61.36 -37.29,-100.28 -15.29,-38.93 -30.36,-73.68 -42.2,-98.41 -5.91,-12.36 -10.88,-22.28 -14.54,-29.02 -3.63,-6.75 -5.78,-10.4 -6.1,-10.25 -0.3,0.15 1.26,4.11 4.35,11.11 3.5,7.94 7.87,17.85 13.07,29.64 10.98,25.04 25.5,59.9 40.76,98.76 14.89,38.42 28.36,73.17 38.64,99.68 4.99,12.75 9.11,23.04 12.08,30.1 2.97,7.06 4.76,10.91 5.08,10.79"
         style="fill:#17282f;fill-opacity:1;fill-rule:nonzero;stroke:none"
         id="path368" />
      <path
         d="m 4568.61,1770.45 c -0.25,-1.36 -50.49,6.62 -112.21,17.82 -61.74,11.2 -111.58,21.38 -111.33,22.74 0.24,1.36 50.48,-6.61 112.23,-17.82 61.71,-11.2 111.56,-21.39 111.31,-22.74"
         style="fill:#17282f;fill-opacity:1;fill-rule:nonzero;stroke:none"
         id="path370" />
      <path
         d="m 4830.28,1907.82 c -1.38,0.02 -2.25,18.24 -1.95,40.68 0.31,22.45 1.68,40.64 3.06,40.62 1.38,-0.02 2.25,-18.23 1.94,-40.69 -0.3,-22.44 -1.67,-40.63 -3.05,-40.61"
         style="fill:#ffffff;fill-opacity:1;fill-rule:nonzero;stroke:none"
         id="path372" />
      <path
         d="m 4740.45,1631.11 c -1.22,0.78 6.05,13.76 13.25,30.49 7.28,16.7 11.77,30.88 13.17,30.53 1.28,-0.28 -1.11,-15.36 -8.58,-32.52 -7.4,-17.18 -16.77,-29.25 -17.84,-28.5"
         style="fill:#ffffff;fill-opacity:1;fill-rule:nonzero;stroke:none"
         id="path374" />
      <path
         d="m 4618.34,1638.89 c -1.32,-0.56 -9.33,15.55 -20.04,34.9 -10.66,19.38 -20.02,34.74 -18.85,35.55 1.1,0.77 12.43,-13.5 23.23,-33.14 10.86,-19.6 16.89,-36.8 15.66,-37.31"
         style="fill:#ffffff;fill-opacity:1;fill-rule:nonzero;stroke:none"
         id="path376" />
      <path
         d="m 4449.78,1716.74 c 0.51,-1.27 -14.12,-8.29 -32.67,-15.65 -18.56,-7.35 -34.01,-12.28 -34.52,-11 -0.51,1.28 14.12,8.3 32.67,15.66 18.56,7.35 34.01,12.28 34.52,10.99"
         style="fill:#ffffff;fill-opacity:1;fill-rule:nonzero;stroke:none"
         id="path378" />
      <path
         d="m 4922.98,2070.11 c -1.09,-0.98 -12.21,10.39 -28.21,21.31 -15.93,11.06 -30.52,17.36 -29.99,18.73 0.36,1.24 16.27,-3.14 32.82,-14.6 16.62,-11.35 26.4,-24.66 25.38,-25.44"
         style="fill:#ffffff;fill-opacity:1;fill-rule:nonzero;stroke:none"
         id="path380" />
      <path
         d="m 4850.99,1821.46 c 0.33,-1.28 -17.24,-6.81 -39.69,-9.62 -22.46,-2.87 -40.84,-1.88 -40.84,-0.55 -0.02,1.43 18.09,2.69 40.2,5.52 22.13,2.77 39.98,6.05 40.33,4.65"
         style="fill:#ffffff;fill-opacity:1;fill-rule:nonzero;stroke:none"
         id="path382" />
      <path
         d="m 4827.3,2592.35 c 11.84,25.3 44.29,37.01 71.19,29.46 26.88,-7.54 47.38,-31.09 56.28,-57.57 8.89,-26.47 7.48,-55.46 1.51,-82.74 -4.34,-19.86 -10.24,-43.12 3,-58.53 12.31,-14.33 35.27,-13.98 49.49,-26.41 14.11,-12.34 14.91,-36.87 1.64,-50.1 -13.27,-13.23 -37.8,-12.34 -50.1,1.8 0.16,-13.93 7.55,-26.59 11.95,-39.82 4.38,-13.23 4.88,-29.93 -5.79,-38.89 -7.93,-6.65 -19.82,-6.69 -29.41,-2.8 -9.6,3.89 -17.42,11.05 -25.02,18.08 4.3,-14.42 4.99,-30.32 -0.57,-44.31 -5.56,-13.98 -18.06,-25.62 -32.95,-27.79 -18.61,-2.72 -37.01,9.79 -45.97,26.32 -8.97,16.53 -10.1,36.19 -8.76,54.95 2.1,29.2 9.7,57.74 13.26,86.81 3.58,29.07 2.78,59.88 -10.83,85.82"
         style="fill:#f03d5f;fill-opacity:1;fill-rule:nonzero;stroke:none"
         id="path384" />
      <path
         d="m 4996.79,2421.91 c 0.04,-0.1 -1.22,-0.77 -3.79,-0.47 -2.48,0.34 -6.37,2.04 -8.83,6.47 -2.71,4.32 -1.62,12.01 4.13,16.49 5.43,4.96 15.75,4.83 22.46,-1.28 7.08,-5.97 9.51,-16.91 6.78,-26.84 -1.35,-5 -3.98,-9.97 -8.16,-13.82 -4.2,-3.88 -9.97,-6.16 -15.85,-6.51 -5.91,-0.38 -12,0.92 -17.45,3.85 -5.47,2.98 -9.96,7.6 -13.25,12.98 -6.65,10.82 -8.26,24.38 -6.47,37.16 3.74,25.72 16.11,47.27 15.85,68.83 0.55,21.41 -6.57,40.23 -14.99,53.97 -8.64,13.82 -18.6,22.85 -25.98,28.18 -7.39,5.41 -12.11,7.48 -11.86,7.97 0.07,0.16 1.27,-0.28 3.51,-1.27 2.3,-0.9 5.48,-2.62 9.45,-5.09 7.88,-4.95 18.53,-13.83 27.86,-27.89 9.1,-13.97 16.93,-33.42 16.62,-55.97 0.39,-22.93 -12.11,-45.13 -15.49,-69.37 -1.69,-12.07 -0.16,-24.33 5.69,-33.97 5.57,-9.76 16.07,-15.47 26.22,-14.78 10.3,0.21 18.02,8.05 20.31,16.84 2.55,8.67 0.55,18.08 -5.12,23.07 -5.61,5.24 -13.74,5.62 -18.4,1.73 -4.93,-3.6 -6.11,-9.64 -4.11,-13.41 1.83,-3.92 5.12,-5.76 7.28,-6.35 2.25,-0.58 3.56,-0.29 3.59,-0.52"
         style="fill:#f03d5f;fill-opacity:1;fill-rule:nonzero;stroke:none"
         id="path386" />
      <path
         d="m 4765.43,2212.56 13.36,305.19 -121.19,91.81 -110.17,-53.87 c 0,0 -3.68,-138.32 0,-198.3 3.66,-59.98 64.15,-66.38 64.15,-66.38 0,0 -1.4,-35.16 -2.8,-72.1 -1.68,-44.69 34.35,-81.74 79.08,-81.32 41.67,0.39 75.75,33.32 77.57,74.97"
         style="fill:#f8a58d;fill-opacity:1;fill-rule:nonzero;stroke:none"
         id="path388" />
      <path
         d="m 4559.42,2454.87 c 0,-4.24 3.44,-7.68 7.68,-7.68 4.24,0 7.68,3.44 7.68,7.68 0,4.24 -3.44,7.68 -7.68,7.68 -4.24,0 -7.68,-3.44 -7.68,-7.68"
         style="fill:#17282f;fill-opacity:1;fill-rule:nonzero;stroke:none"
         id="path390" />
      <path
         d="m 4551.99,2463.24 c 0.99,-0.99 6.66,3.83 14.92,4.27 8.27,0.57 14.48,-3.53 15.34,-2.43 0.42,0.5 -0.6,2.33 -3.32,4.19 -2.67,1.85 -7.17,3.55 -12.32,3.23 -5.14,-0.31 -9.41,-2.54 -11.83,-4.71 -2.48,-2.17 -3.27,-4.11 -2.79,-4.55"
         style="fill:#17282f;fill-opacity:1;fill-rule:nonzero;stroke:none"
         id="path392" />
      <path
         d="m 4648.39,2454.87 c 0,-4.24 3.44,-7.68 7.67,-7.68 4.24,0 7.68,3.44 7.68,7.68 0,4.24 -3.44,7.68 -7.68,7.68 -4.23,0 -7.67,-3.44 -7.67,-7.68"
         style="fill:#17282f;fill-opacity:1;fill-rule:nonzero;stroke:none"
         id="path394" />
      <path
         d="m 4643.61,2463.24 c 1,-0.99 6.66,3.83 14.94,4.27 8.25,0.57 14.46,-3.53 15.33,-2.43 0.42,0.5 -0.61,2.33 -3.32,4.19 -2.67,1.85 -7.17,3.55 -12.33,3.23 -5.14,-0.31 -9.41,-2.54 -11.83,-4.71 -2.46,-2.17 -3.26,-4.11 -2.79,-4.55"
         style="fill:#17282f;fill-opacity:1;fill-rule:nonzero;stroke:none"
         id="path396" />
      <path
         d="m 4641.1,2385.61 c -10.28,-5.1 -28.5,-12.43 -39.97,-13.76 0,0 10.2,-14.55 27.41,-7.78 17.83,7.02 12.56,21.54 12.56,21.54"
         style="fill:#ffffff;fill-opacity:1;fill-rule:nonzero;stroke:none"
         id="path398" />
      <path
         d="m 4611.54,2291.01 c 0,0 40.39,-0.46 79.48,26.84 0,0 -18.02,-44.04 -78.17,-41.56 l -1.31,14.72"
         style="fill:#f68260;fill-opacity:1;fill-rule:nonzero;stroke:none"
         id="path400" />
      <path
         d="m 4953.29,2345.31 c -5.32,-0.29 -13.24,0.57 -21.74,4.92 -8.55,4.19 -17.02,12.12 -23.7,22.98 -6.8,10.76 -12.07,24.09 -17.72,38 -11.2,27.88 -19.66,53.76 -25.38,72.62 -0.9,2.98 -1.72,5.71 -2.5,8.32 -0.51,3.21 -1.03,6.07 -1.58,8.18 -32.72,125.09 -142.66,148.41 -164.42,148.41 -23.32,0 -64.13,12.82 -123.61,-48.98 -9.97,-10.37 -17.18,-20.85 -22.56,-31.15 -15.33,-19.24 -23.44,-40.49 -26.52,-56.49 -3.62,-18.27 -2.09,-29.82 -1.38,-29.77 1.12,-0.04 1.32,11.33 5.97,28.69 2.3,8.7 6.01,18.95 11.51,29.53 -8.68,-38.73 6.1,-69.08 6.1,-69.08 l 21.34,5.87 76.39,25.99 c -6.95,23.66 3.27,53.04 9.05,66.73 l 0.57,0.53 c 17.49,-89.79 100.99,-98.07 100.99,-98.07 l 14.11,-196.45 c 101.56,21.7 99.25,157.59 98.6,185.2 4.6,-15.57 10.59,-33.44 18.12,-52.16 5.7,-13.96 11.15,-27.47 18.58,-38.71 7.24,-11.27 16.86,-19.74 26.34,-23.77 9.43,-4.23 18.11,-4.51 23.69,-3.5 5.64,1.08 8.31,2.89 8.18,3.15 -0.16,0.44 -3.08,-0.62 -8.43,-0.99"
         style="fill:#f03d5f;fill-opacity:1;fill-rule:nonzero;stroke:none"
         id="path402" />
      <path
         d="m 4613.81,2393.42 c 0,0.47 -5.17,1.08 -13.54,1.7 -2.1,0.1 -4.18,0.41 -4.62,1.97 -0.56,1.61 0.25,4.05 1.18,6.67 1.79,5.43 3.68,11.14 5.67,17.13 3.93,12.19 7.3,23.28 9.6,31.35 2.29,8.08 3.48,13.15 3.04,13.28 -0.43,0.15 -2.42,-4.66 -5.29,-12.56 -2.86,-7.89 -6.59,-18.86 -10.52,-31.04 -1.9,-6.03 -3.71,-11.77 -5.42,-17.22 -0.72,-2.55 -1.99,-5.45 -0.82,-8.64 0.61,-1.58 2.17,-2.67 3.51,-2.97 1.36,-0.35 2.55,-0.32 3.59,-0.32 8.38,-0.02 13.6,0.2 13.62,0.65"
         style="fill:#17282f;fill-opacity:1;fill-rule:nonzero;stroke:none"
         id="path404" />
      <path
         d="m 4785.16,2395.93 c -0.36,9.99 -0.38,20.28 3.22,29.61 3.6,9.33 11.62,17.6 21.57,18.64 11.45,1.19 22.53,-8.33 24.36,-19.7 1.81,-11.36 -4.81,-23.19 -14.84,-28.84 -10.03,-5.65 -22.74,-5.48 -33.32,-0.93"
         style="fill:#f8a58d;fill-opacity:1;fill-rule:nonzero;stroke:none"
         id="path406" />
      <path
         d="m 4802.65,2404.66 c 0.37,0.66 3.25,-0.81 7.48,0.48 4.26,1.03 8.63,5.88 8.98,12.75 0.25,3.37 -0.49,6.49 -2.14,7.99 -1.68,1.61 -4.38,2.07 -6.53,1.95 -4.5,-0.39 -7.66,-1.59 -7.92,-0.82 -0.19,0.5 2.02,2.8 7.39,4.32 2.68,0.6 6.55,0.76 10.07,-1.95 3.53,-2.89 4.41,-7.68 4.13,-11.82 -0.27,-4.28 -1.9,-8.34 -4.48,-11.21 -2.54,-2.93 -6.03,-4.41 -8.83,-4.68 -5.92,-0.58 -8.64,2.63 -8.15,2.99"
         style="fill:#f68260;fill-opacity:1;fill-rule:nonzero;stroke:none"
         id="path408" />
      <path
         d="m 4820.64,2396.49 c 0.31,0.47 4.51,-3.1 4.44,-11.17 -0.08,-3.85 -1.64,-8.83 -5.66,-12.51 -3.87,-3.64 -9.85,-6.01 -16.16,-5.02 -6.29,1.08 -11.2,5.23 -13.71,9.93 -2.63,4.76 -2.52,9.98 -1.35,13.66 2.51,7.66 7.63,9.7 7.78,9.16 0.56,-0.57 -3.17,-3.51 -4.34,-9.99 -0.55,-3.17 -0.25,-7.08 1.91,-10.55 2.1,-3.48 5.98,-6.51 10.52,-7.27 4.54,-0.73 9.19,0.9 12.29,3.52 3.16,2.6 4.69,6.21 5.19,9.39 0.96,6.51 -1.63,10.49 -0.91,10.85"
         style="fill:#17282f;fill-opacity:1;fill-rule:nonzero;stroke:none"
         id="path410" />
      <path
         d="m 4785.42,2437.81 c 0.13,-0.2 -2.36,-2.34 -7.72,-4.77 -5.34,-2.43 -13.73,-4.83 -24.33,-4.93 -10.55,-0.04 -23.28,2.4 -35.76,8.93 -12.5,6.49 -24.13,17.18 -33.33,30.36 -18.48,26.73 -23.64,56.19 -26.56,76.43 -1.38,10.27 -2.09,18.61 -2.49,24.37 -0.38,5.77 -0.41,8.98 -0.06,9.02 0.77,0.1 2.52,-12.59 6.03,-32.84 3.79,-19.98 9.46,-48.54 27.18,-74.12 8.82,-12.61 19.76,-22.84 31.41,-29.16 11.64,-6.37 23.62,-9.05 33.64,-9.46 20.43,-0.71 31.67,7.21 31.99,6.17"
         style="fill:#f03d5f;fill-opacity:1;fill-rule:nonzero;stroke:none"
         id="path412" />
      <path
         d="m 4852.72,2523.74 c -1.48,-0.38 -5.97,17.35 -17.74,36.09 -11.57,18.88 -25.47,30.76 -24.47,31.92 0.63,1.07 16.58,-9.54 28.72,-29.28 12.3,-19.64 14.73,-38.64 13.49,-38.73"
         style="fill:#17282f;fill-opacity:1;fill-rule:nonzero;stroke:none"
         id="path414" />
      <path
         d="m 4308.39,1678.45 -35.29,0.38 c -32.07,3.13 -50.03,3.65 -58.99,12.18 -11.99,11.43 4.48,22.65 4.48,22.65 0,0 -23.21,7.97 -21.03,22.12 1.48,9.66 12.48,10.74 12.48,10.74 0,0 -20.48,7.99 -24.52,16.52 -5.53,11.64 8.93,17.85 8.93,17.85 -27.93,17.22 -25.39,34.24 -18.94,35.94 6.45,1.7 28.25,-8.32 28.25,-8.32 18.39,-5.25 68.58,-20.57 49.98,7.11 -18.6,27.69 -22.46,55.97 -18.18,64.35 4.27,8.39 17.5,5.48 19.15,-4.74 1.33,-8.27 7.82,-21.35 13.1,-30.97 4.36,-7.94 9.98,-15.12 16.74,-21.15 7.89,-7.01 14.84,-12.65 20.88,-17.29 l 31.41,-30.32 -28.45,-97.05"
         style="fill:#f8a58d;fill-opacity:1;fill-rule:nonzero;stroke:none"
         id="path416" />
      <path
         d="m 4088.75,2030.76 c 2.57,7.61 8.83,13.02 15.65,9.45 3.23,-3.56 3.31,-8.43 2.25,-11.74 l -21.8,-70.95 0.03,-0.06 20.65,50.15 c 2.57,7.6 9.45,12.18 14.2,8.06 2.62,-2.28 2.72,-8.2 1.67,-11.51 l -18.82,-58.89 15.31,36.81 c 3.2,8.4 6.96,10.65 11.23,8.82 4.22,-1.81 4.4,-8.08 3.34,-11.38 l -12.97,-43.49 c 2.8,-8.34 12.4,-34.64 3.17,-49.44 l 0.89,-4.02 4.37,-5.01 -28.93,-26.12 c 0,0 -26.7,67.54 -31.76,87.78 -4.43,17.7 -0.39,29.34 1.57,35.44 l 19.95,56.1"
         style="fill:#f8a58d;fill-opacity:1;fill-rule:nonzero;stroke:none"
         id="path418" />
    </g>
  </g>
</svg>
